STARTFONT 2.1
COMMENT
COMMENT Converted from OpenType font "FreeUniversal-Bold.ttf" by "otf2bdf 3.0".
COMMENT
FONT -FreeType-FreeUniversal-Bold-R-Normal--58-580-72-72-P-286-ISO10646-1
SIZE 58 72 72
FONTBOUNDINGBOX 87 77 -5 -15
STARTPROPERTIES 19
FOUNDRY "FreeType"
FAMILY_NAME "FreeUniversal"
WEIGHT_NAME "Bold"
SLANT "R"
SETWIDTH_NAME "Normal"
ADD_STYLE_NAME ""
PIXEL_SIZE 58
POINT_SIZE 580
RESOLUTION_X 72
RESOLUTION_Y 72
SPACING "P"
AVERAGE_WIDTH 286
CHARSET_REGISTRY "ISO10646"
CHARSET_ENCODING "1"
FONT_ASCENT 61
FONT_DESCENT 14
COPYRIGHT "FreeUniveral (c) Stephen Wilson 2009    Original Font Sil-Sophia  Copyright (c) SIL International, 1994-2008."
_OTF_FONTFILE "FreeUniversal-Bold.ttf"
_OTF_PSNAME "FreeUniversal-Bold"
ENDPROPERTIES
CHARS 243
STARTCHAR 0020
ENCODING 32
SWIDTH 293 0
DWIDTH 17 0
BBX 0 0 0 0
BITMAP
ENDCHAR
STARTCHAR 0021
ENCODING 33
SWIDTH 396 0
DWIDTH 23 0
BBX 7 42 8 0
BITMAP
FE
FE
FE
FE
FE
FE
FE
FE
FE
FE
FE
FE
FE
FE
FE
FE
FE
FE
FE
FE
FE
FE
FE
FE
FE
FE
FE
FE
FE
FE
FE
00
00
00
00
FE
FE
FE
FE
FE
FE
FE
ENDCHAR
STARTCHAR 0022
ENCODING 34
SWIDTH 517 0
DWIDTH 30 0
BBX 22 17 4 25
BITMAP
FF87FC
FF83FC
FF83FC
FF03FC
FF03FC
7F03FC
7F03FC
7F03F8
7F03F8
7F03F8
7F03F8
7F03F8
7F01F8
7F01F8
7E01F8
7E01F8
7E01F8
ENDCHAR
STARTCHAR 0023
ENCODING 35
SWIDTH 724 0
DWIDTH 42 0
BBX 36 42 3 0
BITMAP
0003F01F80
0003F01F80
0003F01F00
0007E03F00
0007E03F00
0007E03E00
000FC07E00
000FC07E00
000FC07C00
001F80FC00
07FFFFFFF0
07FFFFFFF0
07FFFFFFE0
0FFFFFFFE0
0FFFFFFFE0
003F01F000
003E03F000
007E03F000
007E03F000
007C03E000
00FC07E000
00FC07E000
00FC07C000
01F80FC000
01F80FC000
7FFFFFFE00
7FFFFFFE00
FFFFFFFE00
FFFFFFFE00
FFFFFFFC00
07E03F0000
07E03F0000
07E03F0000
07C07E0000
0FC07E0000
0FC07E0000
0FC07C0000
1F80FC0000
1F80FC0000
1F80FC0000
1F01F80000
3F01F80000
ENDCHAR
STARTCHAR 0024
ENCODING 36
SWIDTH 586 0
DWIDTH 34 0
BBX 30 52 2 -6
BITMAP
00070000
00070000
00070000
00070000
007FFC00
01FFFF00
03FFFF80
07FFFFC0
0FFFFFE0
1FFFFFE0
3FF73FF0
3FC71FF0
3FC70FF0
7F8707F8
7F8707F8
7F8707F8
7F870000
7F870000
7FC70000
7FE70000
3FFF0000
3FFF0000
1FFFE000
1FFFFC00
07FFFF00
03FFFFC0
007FFFE0
001FFFF0
0007FFF8
00077FF8
00071FFC
000707FC
000703FC
FF0703FC
FF0703FC
FF0703FC
FF0703FC
7F8707F8
7FC70FF8
7FE73FF8
3FFFFFF0
1FFFFFE0
1FFFFFC0
07FFFF80
03FFFE00
00FFF800
001F8000
00070000
00070000
00070000
00070000
00070000
ENDCHAR
STARTCHAR 0025
ENCODING 37
SWIDTH 982 0
DWIDTH 57 0
BBX 53 44 2 0
BITMAP
000000000FC000
00FE00001F8000
03FF80001F8000
0FFFE0003F0000
1FFFF0003F0000
3F83F8007E0000
3F01F8007C0000
7E00FC00FC0000
7E00FC00F80000
FC007E01F80000
FC007E03F00000
FC007E03F00000
FC007E07E00000
FC007E07E00000
FC007E0FC00000
FC007E0F800000
FC007E1F800000
7E00FC1F000000
7E00FC3F000000
3F01F87E000000
3F83F87E03F800
1FFFF0FC1FFE00
0FFFE0FC3FFF80
07FFC1F87FFFC0
00FE01F0FE0FE0
000003F0FC07E0
000003E1F803F0
000007E1F803F0
00000FC3F001F8
00000FC3F001F8
00001F83F001F8
00001F83F001F8
00003F03F001F8
00003F03F001F8
00007E03F001F8
00007C03F001F8
0000FC01F803F0
0000F801F803F0
0001F800FC07E0
0003F000FE0FE0
0003F0007FFFC0
0007E0003FFF80
0007E0001FFF00
000FC00003F800
ENDCHAR
STARTCHAR 0026
ENCODING 38
SWIDTH 793 0
DWIDTH 46 0
BBX 41 44 3 -1
BITMAP
001FF0000000
00FFFE000000
01FFFF000000
07FFFF800000
0FFFFFC00000
0FFFFFC00000
1FF83FE00000
1FF01FE00000
1FE00FE00000
1FE00FE00000
1FE00FE00000
1FE00FE00000
0FF01FC00000
0FF03FC00000
0FF87F800000
07FCFF800000
03FFFF000000
01FFFE000000
00FFF8000000
00FFF0000000
03FFC0000000
07FFE007F800
0FFFF007F800
1FFFF807F800
3FF7FC07F800
3FE3FE07F000
7FC1FF07F000
7F81FF8FF000
FF80FFCFF000
FF007FEFF000
FF003FFFE000
FF001FFFE000
FF000FFFE000
FF0003FFC000
FF8001FFC000
FFC000FF8000
7FE001FFC000
7FF80FFFE000
3FFFFFFFF000
1FFFFFFFF800
0FFFFFF7FE00
07FFFFE3FF00
01FFFF81FF80
001FF8000000
ENDCHAR
STARTCHAR 0027
ENCODING 39
SWIDTH 413 0
DWIDTH 24 0
BBX 8 17 8 25
BITMAP
FF
FF
FF
FF
FF
FF
FF
FF
FF
FE
FE
7E
7E
7E
7E
7E
7E
ENDCHAR
STARTCHAR 0028
ENCODING 40
SWIDTH 379 0
DWIDTH 22 0
BBX 12 51 5 -8
BITMAP
07F0
07E0
0FE0
0FE0
0FC0
1FC0
1FC0
1F80
3F80
3F80
3F80
3F80
7F00
7F00
7F00
7F00
7F00
FF00
FE00
FE00
FE00
FE00
FE00
FE00
FE00
FE00
FE00
FE00
FE00
FE00
FE00
FE00
FE00
FE00
7F00
7F00
7F00
7F00
7F00
3F80
3F80
3F80
3F80
1F80
1FC0
1FC0
0FC0
0FE0
0FE0
07E0
07F0
ENDCHAR
STARTCHAR 0029
ENCODING 41
SWIDTH 379 0
DWIDTH 22 0
BBX 12 51 5 -8
BITMAP
FE00
7E00
7F00
7F00
3F00
3F80
3F80
1F80
1FC0
1FC0
1FC0
1FC0
0FE0
0FE0
0FE0
0FE0
0FE0
0FE0
07F0
07F0
07F0
07F0
07F0
07F0
07F0
07F0
07F0
07F0
07F0
07F0
07F0
07F0
07F0
0FE0
0FE0
0FE0
0FE0
0FE0
0FE0
1FC0
1FC0
1FC0
1FC0
3F80
3F80
3F80
3F00
7F00
7F00
7E00
FE00
ENDCHAR
STARTCHAR 002A
ENCODING 42
SWIDTH 637 0
DWIDTH 37 0
BBX 23 23 7 20
BITMAP
008200
038380
0F83E0
1FC7E0
0FC7E0
07C7C0
03EF80
01EF00
00FE00
F8FE3E
FFFFFE
FFFFFE
FFFFFE
FE7CFE
80FE02
01EF00
03EF80
07EFC0
07C7C0
0FC7E0
1F83F0
0783C0
018300
ENDCHAR
STARTCHAR 002B
ENCODING 43
SWIDTH 1017 0
DWIDTH 59 0
BBX 35 35 12 0
BITMAP
0001E00000
0001E00000
0001E00000
0001E00000
0001E00000
0001E00000
0001E00000
0001E00000
0001E00000
0001E00000
0001E00000
0001E00000
0001E00000
0001E00000
0001E00000
0001E00000
FFFFFFFFE0
FFFFFFFFE0
FFFFFFFFE0
FFFFFFFFE0
0001E00000
0001E00000
0001E00000
0001E00000
0001E00000
0001E00000
0001E00000
0001E00000
0001E00000
0001E00000
0001E00000
0001E00000
0001E00000
0001E00000
0001E00000
ENDCHAR
STARTCHAR 002C
ENCODING 44
SWIDTH 310 0
DWIDTH 18 0
BBX 12 15 3 -8
BITMAP
0FF0
0FF0
0FE0
1FE0
1FC0
1FC0
3F80
3F80
3F00
7F00
7E00
7E00
7C00
FC00
FC00
ENDCHAR
STARTCHAR 002D
ENCODING 45
SWIDTH 327 0
DWIDTH 19 0
BBX 15 8 2 11
BITMAP
FFFE
FFFE
FFFE
FFFE
FFFE
FFFE
FFFE
FFFE
ENDCHAR
STARTCHAR 002E
ENCODING 46
SWIDTH 310 0
DWIDTH 18 0
BBX 8 8 6 0
BITMAP
FF
FF
FF
FF
FF
FF
FF
FF
ENDCHAR
STARTCHAR 002F
ENCODING 47
SWIDTH 431 0
DWIDTH 25 0
BBX 19 46 3 -3
BITMAP
0007E0
0007E0
0007C0
000FC0
000FC0
000F80
001F80
001F80
001F80
001F00
003F00
003F00
003E00
007E00
007E00
007C00
00FC00
00FC00
00FC00
00F800
01F800
01F800
01F000
03F000
03F000
03F000
07E000
07E000
07E000
07C000
0FC000
0FC000
0F8000
1F8000
1F8000
1F8000
3F0000
3F0000
3F0000
3E0000
7E0000
7E0000
7C0000
FC0000
FC0000
FC0000
ENDCHAR
STARTCHAR 0030
ENCODING 48
SWIDTH 568 0
DWIDTH 33 0
BBX 29 44 2 -1
BITMAP
001FC000
00FFF800
03FFFC00
07FFFF00
0FFFFF80
0FFFFF80
1FF0FFC0
3FC03FC0
3FC03FE0
3F801FE0
7F801FF0
7F001FF0
7F000FF0
7F000FF0
FF000FF0
FF000FF8
FF000FF8
FF000FF8
FF000FF8
FF000FF8
FF000FF8
FF000FF8
FF000FF8
FF000FF8
FF000FF8
FF000FF8
FF000FF8
FF000FF8
FF000FF8
7F000FF0
7F000FF0
7F000FF0
7F001FF0
7F801FF0
3F801FE0
3FC03FE0
3FC03FC0
1FF0FFC0
0FFFFF80
0FFFFF00
07FFFF00
03FFFE00
00FFF800
001FC000
ENDCHAR
STARTCHAR 0031
ENCODING 49
SWIDTH 568 0
DWIDTH 33 0
BBX 18 42 6 0
BITMAP
003FC0
007FC0
00FFC0
03FFC0
0FFFC0
3FFFC0
FFFFC0
FFFFC0
FFFFC0
FF3FC0
FE3FC0
F83FC0
E03FC0
003FC0
003FC0
003FC0
003FC0
003FC0
003FC0
003FC0
003FC0
003FC0
003FC0
003FC0
003FC0
003FC0
003FC0
003FC0
003FC0
003FC0
003FC0
003FC0
003FC0
003FC0
003FC0
003FC0
003FC0
003FC0
003FC0
003FC0
003FC0
003FC0
ENDCHAR
STARTCHAR 0032
ENCODING 50
SWIDTH 568 0
DWIDTH 33 0
BBX 29 43 2 0
BITMAP
000FF000
007FFE00
01FFFF00
03FFFF80
07FFFFC0
0FFFFFE0
1FF83FF0
1FF01FF0
1FE00FF0
3FC007F8
3FC007F8
3FC007F8
000007F8
000007F8
00000FF8
00000FF0
00001FF0
00001FF0
00003FE0
00007FE0
0000FFC0
0001FF80
0003FF80
0007FF00
000FFE00
001FFC00
003FF800
007FF000
00FFE000
01FF8000
03FF0000
0FFE0000
1FFC0000
3FF00000
7FE00000
FFC00000
FFFFFFF8
FFFFFFF8
FFFFFFF8
FFFFFFF8
FFFFFFF8
FFFFFFF8
FFFFFFF8
ENDCHAR
STARTCHAR 0033
ENCODING 51
SWIDTH 568 0
DWIDTH 33 0
BBX 28 44 3 -1
BITMAP
007FC000
03FFF800
07FFFC00
1FFFFF00
3FFFFF00
3FFFFF80
7FE0FFC0
7FC07FC0
FF803FC0
FF001FE0
FF001FE0
FF001FE0
00001FE0
00001FE0
00001FE0
00003FC0
00007FC0
0003FF80
007FFF00
007FFC00
007FF000
007FF800
007FFE00
007FFF80
0000FFC0
00003FE0
00001FE0
00001FE0
00000FF0
00000FF0
00000FF0
FF000FF0
FF000FF0
FF000FF0
FF001FE0
FF801FE0
7FC03FE0
7FE0FFC0
3FFFFF80
3FFFFF00
1FFFFE00
0FFFFC00
03FFF800
007FC000
ENDCHAR
STARTCHAR 0034
ENCODING 52
SWIDTH 568 0
DWIDTH 33 0
BBX 31 42 1 0
BITMAP
0001FFC0
0001FFC0
0003FFC0
0007FFC0
0007FFC0
000FFFC0
000FFFC0
001FFFC0
003FFFC0
003FBFC0
007F3FC0
00FF3FC0
00FE3FC0
01FE3FC0
01FC3FC0
03F83FC0
07F83FC0
07F03FC0
0FF03FC0
1FE03FC0
1FC03FC0
3FC03FC0
3F803FC0
7F803FC0
FF003FC0
FF003FC0
FFFFFFFE
FFFFFFFE
FFFFFFFE
FFFFFFFE
FFFFFFFE
FFFFFFFE
FFFFFFFE
00003FC0
00003FC0
00003FC0
00003FC0
00003FC0
00003FC0
00003FC0
00003FC0
00003FC0
ENDCHAR
STARTCHAR 0035
ENCODING 53
SWIDTH 568 0
DWIDTH 33 0
BBX 29 43 2 -1
BITMAP
7FFFFFE0
7FFFFFE0
7FFFFFE0
7FFFFFE0
7FFFFFE0
7FFFFFE0
7FFFFFE0
7F800000
7F800000
7F800000
7F800000
7F800000
7F800000
7F800000
7F800000
7F87F800
7F9FFE00
7FFFFF80
7FFFFFC0
7FFFFFC0
7FFFFFE0
7FF03FF0
7FC01FF0
7F800FF0
7F800FF8
7F0007F8
000007F8
000007F8
000007F8
000007F8
000007F8
000007F0
FF000FF0
FF000FF0
FF001FF0
FF803FE0
7FE0FFC0
7FFFFFC0
3FFFFF80
1FFFFF00
0FFFFC00
03FFF800
007FC000
ENDCHAR
STARTCHAR 0036
ENCODING 54
SWIDTH 568 0
DWIDTH 33 0
BBX 29 44 2 -1
BITMAP
000FF000
007FFC00
00FFFF00
03FFFF80
07FFFFC0
07FFFFE0
0FFC3FE0
1FF00FF0
1FE00FF0
3FC007F8
3FC007F8
3F800000
7F800000
7F800000
7F800000
7F000000
FF03F800
FF1FFE00
FF3FFF00
FF7FFF80
FFFFFFC0
FFFFFFE0
FFF83FF0
FFE01FF0
FFC00FF0
FFC00FF8
FF8007F8
FF8007F8
FF8007F8
FF8007F8
FF8007F8
7F8007F8
7F8007F8
7F8007F0
7FC00FF0
3FC00FF0
3FE01FE0
1FF83FE0
1FFFFFC0
0FFFFF80
07FFFF00
03FFFE00
00FFF800
003FC000
ENDCHAR
STARTCHAR 0037
ENCODING 55
SWIDTH 568 0
DWIDTH 33 0
BBX 28 42 3 0
BITMAP
FFFFFFF0
FFFFFFF0
FFFFFFF0
FFFFFFF0
FFFFFFF0
FFFFFFF0
FFFFFFF0
00000FF0
00000FF0
00001FF0
00001FE0
00003FE0
00003FC0
00007FC0
00007FC0
0000FF80
0000FF80
0001FF00
0001FF00
0001FE00
0003FE00
0003FE00
0007FC00
0007FC00
000FF800
000FF800
001FF800
001FF000
001FF000
003FE000
003FE000
007FC000
007FC000
00FFC000
00FF8000
01FF8000
01FF0000
03FF0000
03FF0000
03FE0000
07FE0000
07FC0000
ENDCHAR
STARTCHAR 0038
ENCODING 56
SWIDTH 568 0
DWIDTH 33 0
BBX 29 44 2 -1
BITMAP
003FF000
01FFFE00
07FFFF80
0FFFFFC0
1FFFFFE0
3FFFFFF0
3FF87FF0
7FE01FF0
7FE01FF8
7FC00FF8
7FC00FF8
7FC00FF8
7FC00FF8
7FC00FF8
3FE01FF0
3FE01FF0
1FF87FE0
0FFFFFC0
07FFFF00
01FFFC00
00FFF800
03FFFE00
0FFFFF80
1FFFFFC0
3FF03FE0
7FE01FE0
7FC00FF0
7FC00FF0
FF8007F8
FF8007F8
FF8007F8
FF8007F8
FF8007F8
FF8007F8
FFC00FF8
FFC00FF8
7FE01FF0
7FF03FF0
7FFFFFE0
3FFFFFE0
1FFFFFC0
0FFFFF80
03FFFE00
007FF000
ENDCHAR
STARTCHAR 0039
ENCODING 57
SWIDTH 568 0
DWIDTH 33 0
BBX 29 44 2 -1
BITMAP
001FC000
00FFF800
03FFFE00
07FFFF00
0FFFFF80
1FFFFF80
3FE0FFC0
3FC03FE0
7F801FE0
7F801FE0
7F000FF0
FF000FF0
FF000FF0
FF000FF0
FF000FF8
FF000FF8
FF000FF8
FF000FF8
FF801FF8
7F801FF8
7FC03FF8
7FE0FFF8
3FFFFFF8
1FFFFFF8
1FFFF7F8
0FFFE7F8
03FFC7F8
00FE07F0
000007F0
00000FF0
00000FF0
00000FF0
00000FE0
7F801FE0
7F801FE0
3F803FC0
3FC07FC0
3FE0FF80
1FFFFF80
0FFFFF00
07FFFE00
03FFFC00
01FFF000
003FC000
ENDCHAR
STARTCHAR 003A
ENCODING 58
SWIDTH 327 0
DWIDTH 19 0
BBX 8 29 8 0
BITMAP
FF
FF
FF
FF
FF
FF
FF
FF
00
00
00
00
00
00
00
00
00
00
00
00
00
FF
FF
FF
FF
FF
FF
FF
FF
ENDCHAR
STARTCHAR 003B
ENCODING 59
SWIDTH 327 0
DWIDTH 19 0
BBX 12 36 3 -7
BITMAP
0FF0
0FF0
0FF0
0FF0
0FF0
0FF0
0FF0
0FF0
0000
0000
0000
0000
0000
0000
0000
0000
0000
0000
0000
0000
0000
0FF0
0FF0
0FE0
1FE0
1FE0
1FC0
3FC0
3F80
3F80
7F00
7F00
7E00
FE00
FC00
FC00
ENDCHAR
STARTCHAR 003C
ENCODING 60
SWIDTH 1017 0
DWIDTH 59 0
BBX 35 31 12 2
BITMAP
0000000020
00000000E0
00000007E0
0000001FE0
000000FF80
000007FE00
00001FF000
0000FF8000
0007FE0000
001FF00000
00FF800000
03FC000000
1FF0000000
FF80000000
FC00000000
F000000000
FC00000000
FF80000000
1FF0000000
03FC000000
00FF800000
001FF00000
0003FE0000
0000FF8000
00001FF000
000007FE00
000000FF80
0000001FE0
00000007E0
00000000E0
0000000020
ENDCHAR
STARTCHAR 003D
ENCODING 61
SWIDTH 1017 0
DWIDTH 59 0
BBX 35 14 12 10
BITMAP
FFFFFFFFE0
FFFFFFFFE0
FFFFFFFFE0
FFFFFFFFE0
0000000000
0000000000
0000000000
0000000000
0000000000
0000000000
FFFFFFFFE0
FFFFFFFFE0
FFFFFFFFE0
FFFFFFFFE0
ENDCHAR
STARTCHAR 003E
ENCODING 62
SWIDTH 1017 0
DWIDTH 59 0
BBX 35 31 12 2
BITMAP
8000000000
E000000000
FC00000000
FF00000000
3FE0000000
0FFC000000
01FF000000
003FE00000
000FF80000
0001FF0000
00003FE000
000007F800
000001FF00
0000003FE0
00000007E0
00000001E0
00000007E0
0000003FE0
000001FF00
000007F800
00003FE000
0001FF0000
000FF80000
003FE00000
01FF000000
0FFC000000
3FE0000000
FF00000000
FC00000000
E000000000
8000000000
ENDCHAR
STARTCHAR 003F
ENCODING 63
SWIDTH 534 0
DWIDTH 31 0
BBX 26 43 2 0
BITMAP
00FF0000
03FFE000
0FFFF800
1FFFFC00
3FFFFF00
7FFFFF00
7F81FF80
FF007F80
FE007FC0
7C003FC0
1C003FC0
08003FC0
00003FC0
00003F80
00007F80
00007F00
0000FF00
0001FE00
0003FC00
0007F800
000FF000
003FC000
007F8000
007F0000
00FE0000
00FC0000
00FC0000
00FC0000
00FC0000
00FC0000
00FC0000
00FC0000
00000000
00000000
00000000
00000000
00FE0000
00FE0000
00FE0000
00FE0000
00FE0000
00FE0000
00FE0000
ENDCHAR
STARTCHAR 0040
ENCODING 64
SWIDTH 1034 0
DWIDTH 60 0
BBX 56 55 2 -12
BITMAP
000001FFE00000
00001FFFFE0000
00007FFFFFC000
0001FFFFFFF000
0007FFFFFFF800
001FFFFFFFFE00
003FFFFFFFFF00
007FFF803FFF80
00FFF80007FFC0
01FFE00001FFE0
03FF8000007FF0
07FF0000003FF0
07FE0000001FF8
0FFC03F0000FF8
1FF80FFC7F87FC
1FF01FFF7F87FC
3FE03FFFFF83FE
3FE07FFFFF83FE
3FC0FFFFFF81FE
7FC0FF83FF81FE
7F81FF01FF81FF
7F81FE00FF81FF
FF81FE00FF80FF
FF03FE007F80FF
FF03FC007F80FF
FF03FC007F80FF
FF03FC007F80FF
FF03FC007F80FF
FF03FC007F80FF
FF03FC007F80FE
FF03FC007F80FE
FF03FC00FF81FE
FF01FE00FF81FE
7F01FE00FF81FC
7F81FF01FFC3FC
7F80FF87FFC7F8
7F80FFFFFFFFF8
3FC07FFFDFFFF0
3FE03FFFDFFFE0
1FE01FFF0FFFC0
1FF007FE07FF80
0FF801F800FC00
0FFC0000000000
07FE0000000000
03FF0000000000
03FFC000000000
01FFF00000C000
00FFFE001FC000
007FFFFFFFC000
001FFFFFFFC000
000FFFFFFFC000
0003FFFFFFC000
0000FFFFFFC000
00001FFFFFC000
000001FFF80000
ENDCHAR
STARTCHAR 0041
ENCODING 65
SWIDTH 706 0
DWIDTH 41 0
BBX 39 42 1 0
BITMAP
0001FF0000
0001FF0000
0003FF8000
0003FF8000
0003FFC000
0007FFC000
0007FFC000
000FFFE000
000FFFE000
000FFFE000
001FEFF000
001FEFF000
001FC7F800
003FC7F800
003FC7F800
007F83FC00
007F83FC00
007F83FC00
00FF01FE00
00FF01FE00
00FF01FF00
01FE00FF00
01FE00FF00
03FE00FF80
03FC007F80
03FC007F80
07FFFFFFC0
07FFFFFFC0
07FFFFFFE0
0FFFFFFFE0
0FFFFFFFE0
1FFFFFFFF0
1FFFFFFFF0
1FE0000FF0
3FE0000FF8
3FC00007F8
3FC00007FC
7FC00007FC
7F800003FC
FF800003FE
FF800001FE
FF000001FE
ENDCHAR
STARTCHAR 0042
ENCODING 66
SWIDTH 672 0
DWIDTH 39 0
BBX 32 42 4 0
BITMAP
FFFFFC00
FFFFFF00
FFFFFFC0
FFFFFFE0
FFFFFFF0
FFFFFFF8
FFFFFFF8
FF803FFC
FF801FFC
FF800FFC
FF8007FC
FF8007FC
FF8007FC
FF8007FC
FF800FF8
FF801FF8
FF807FF0
FFFFFFE0
FFFFFF80
FFFFFF00
FFFFFC00
FFFFFF80
FFFFFFE0
FFFFFFF8
FF801FFC
FF8007FC
FF8003FE
FF8001FE
FF8001FF
FF8001FF
FF8001FF
FF8001FF
FF8003FF
FF8007FF
FF800FFE
FFFFFFFE
FFFFFFFC
FFFFFFF8
FFFFFFF0
FFFFFFE0
FFFFFF80
FFFFFC00
ENDCHAR
STARTCHAR 0043
ENCODING 67
SWIDTH 724 0
DWIDTH 42 0
BBX 35 44 3 -1
BITMAP
0003FF0000
001FFFE000
007FFFF800
01FFFFFC00
03FFFFFE00
07FFFFFF00
0FFFFFFF80
0FFE03FF80
1FF800FFC0
1FF0007FC0
3FE0007FE0
3FE0003FE0
7FC0003FE0
7FC0001FE0
7FC0000000
7F80000000
FF80000000
FF80000000
FF80000000
FF80000000
FF80000000
FF80000000
FF80000000
FF80000000
FF80000000
FF80000000
FF80000000
FF80000000
7F80000000
7FC0003FE0
7FC0003FE0
7FC0003FE0
3FE0007FE0
3FE0007FE0
1FF000FFC0
1FF801FFC0
0FFE03FF80
0FFFFFFF00
07FFFFFE00
03FFFFFC00
01FFFFF800
00FFFFF000
003FFFC000
0003FE0000
ENDCHAR
STARTCHAR 0044
ENCODING 68
SWIDTH 724 0
DWIDTH 42 0
BBX 35 42 4 0
BITMAP
FFFFC00000
FFFFFC0000
FFFFFF0000
FFFFFFC000
FFFFFFF000
FFFFFFF800
FFFFFFFC00
FF807FFE00
FF800FFF00
FF8003FF00
FF8001FF80
FF8001FF80
FF8000FFC0
FF80007FC0
FF80007FC0
FF80007FC0
FF80003FE0
FF80003FE0
FF80003FE0
FF80003FE0
FF80003FE0
FF80003FE0
FF80003FE0
FF80003FE0
FF80003FE0
FF80003FE0
FF80007FC0
FF80007FC0
FF80007FC0
FF8000FFC0
FF8001FF80
FF8001FF80
FF8003FF00
FF800FFF00
FF807FFE00
FFFFFFFC00
FFFFFFF800
FFFFFFF000
FFFFFFC000
FFFFFF0000
FFFFFC0000
FFFFC00000
ENDCHAR
STARTCHAR 0045
ENCODING 69
SWIDTH 620 0
DWIDTH 36 0
BBX 28 42 4 0
BITMAP
FFFFFFF0
FFFFFFF0
FFFFFFF0
FFFFFFF0
FFFFFFF0
FFFFFFF0
FFFFFFF0
FF000000
FF000000
FF000000
FF000000
FF000000
FF000000
FF000000
FF000000
FF000000
FF000000
FFFFFFE0
FFFFFFE0
FFFFFFE0
FFFFFFE0
FFFFFFE0
FFFFFFE0
FF000000
FF000000
FF000000
FF000000
FF000000
FF000000
FF000000
FF000000
FF000000
FF000000
FF000000
FF000000
FFFFFFF0
FFFFFFF0
FFFFFFF0
FFFFFFF0
FFFFFFF0
FFFFFFF0
FFFFFFF0
ENDCHAR
STARTCHAR 0046
ENCODING 70
SWIDTH 586 0
DWIDTH 34 0
BBX 27 42 4 0
BITMAP
FFFFFFE0
FFFFFFE0
FFFFFFE0
FFFFFFE0
FFFFFFE0
FFFFFFE0
FFFFFFE0
FF800000
FF800000
FF800000
FF800000
FF800000
FF800000
FF800000
FF800000
FF800000
FF800000
FFFFFFC0
FFFFFFC0
FFFFFFC0
FFFFFFC0
FFFFFFC0
FFFFFFC0
FFFFFFC0
FF800000
FF800000
FF800000
FF800000
FF800000
FF800000
FF800000
FF800000
FF800000
FF800000
FF800000
FF800000
FF800000
FF800000
FF800000
FF800000
FF800000
FF800000
ENDCHAR
STARTCHAR 0047
ENCODING 71
SWIDTH 775 0
DWIDTH 45 0
BBX 38 44 3 -1
BITMAP
0000FFC000
0007FFFC00
001FFFFF00
007FFFFF80
00FFFFFFC0
01FFFFFFE0
03FFFFFFF0
07FF80FFF0
0FFE003FF8
1FFC001FF8
1FF8000FFC
3FF00007FC
3FE00007FC
7FE00007FC
7FC0000000
7FC0000000
7FC0000000
FF80000000
FF80000000
FF80000000
FF80000000
FF8003FFFC
FF8003FFFC
FF8003FFFC
FF8003FFFC
FF8003FFFC
FF8003FFFC
FFC003FFFC
7FC00007FC
7FC00007FC
7FE00007FC
3FE00007FC
3FF00007FC
3FF80007FC
1FFC0007FC
0FFF0007FC
0FFFC01FFC
07FFFFFFFC
03FFFFFFFC
01FFFFFFFC
007FFFFFFC
001FFFFFF8
0007FFFF80
00007FF000
ENDCHAR
STARTCHAR 0048
ENCODING 72
SWIDTH 706 0
DWIDTH 41 0
BBX 33 42 4 0
BITMAP
FF00007F80
FF00007F80
FF00007F80
FF00007F80
FF00007F80
FF00007F80
FF00007F80
FF00007F80
FF00007F80
FF00007F80
FF00007F80
FF00007F80
FF00007F80
FF00007F80
FF00007F80
FF00007F80
FFFFFFFF80
FFFFFFFF80
FFFFFFFF80
FFFFFFFF80
FFFFFFFF80
FFFFFFFF80
FFFFFFFF80
FF00007F80
FF00007F80
FF00007F80
FF00007F80
FF00007F80
FF00007F80
FF00007F80
FF00007F80
FF00007F80
FF00007F80
FF00007F80
FF00007F80
FF00007F80
FF00007F80
FF00007F80
FF00007F80
FF00007F80
FF00007F80
FF00007F80
ENDCHAR
STARTCHAR 0049
ENCODING 73
SWIDTH 293 0
DWIDTH 17 0
BBX 9 42 4 0
BITMAP
FF80
FF80
FF80
FF80
FF80
FF80
FF80
FF80
FF80
FF80
FF80
FF80
FF80
FF80
FF80
FF80
FF80
FF80
FF80
FF80
FF80
FF80
FF80
FF80
FF80
FF80
FF80
FF80
FF80
FF80
FF80
FF80
FF80
FF80
FF80
FF80
FF80
FF80
FF80
FF80
FF80
FF80
ENDCHAR
STARTCHAR 004A
ENCODING 74
SWIDTH 620 0
DWIDTH 36 0
BBX 29 43 3 -1
BITMAP
00000FF8
00000FF8
00000FF8
00000FF8
00000FF8
00000FF8
00000FF8
00000FF8
00000FF8
00000FF8
00000FF8
00000FF8
00000FF8
00000FF8
00000FF8
00000FF8
00000FF8
00000FF8
00000FF8
00000FF8
00000FF8
00000FF8
00000FF8
00000FF8
00000FF8
00000FF8
00000FF8
00000FF8
00000FF8
FF800FF8
FF800FF8
FF800FF8
FF800FF8
FFC01FF0
7FC03FF0
7FF07FF0
7FFFFFE0
3FFFFFC0
3FFFFFC0
1FFFFF00
0FFFFE00
03FFFC00
007FE000
ENDCHAR
STARTCHAR 004B
ENCODING 75
SWIDTH 706 0
DWIDTH 41 0
BBX 34 42 4 0
BITMAP
FF8001FF00
FF8003FF00
FF8007FE00
FF800FFC00
FF801FF800
FF801FF000
FF803FF000
FF807FE000
FF80FFC000
FF80FF8000
FF81FF8000
FF83FF0000
FF87FE0000
FF8FFC0000
FF8FF80000
FF9FF80000
FFBFF00000
FFFFE00000
FFFFC00000
FFFFE00000
FFFFE00000
FFFFF00000
FFBFF80000
FF9FF80000
FF8FFC0000
FF8FFE0000
FF87FF0000
FF83FF0000
FF83FF8000
FF81FFC000
FF80FFC000
FF807FE000
FF807FF000
FF803FF800
FF801FF800
FF801FFC00
FF800FFE00
FF8007FE00
FF8003FF00
FF8003FF80
FF8001FF80
FF8000FFC0
ENDCHAR
STARTCHAR 004C
ENCODING 76
SWIDTH 568 0
DWIDTH 33 0
BBX 28 42 4 0
BITMAP
FF800000
FF800000
FF800000
FF800000
FF800000
FF800000
FF800000
FF800000
FF800000
FF800000
FF800000
FF800000
FF800000
FF800000
FF800000
FF800000
FF800000
FF800000
FF800000
FF800000
FF800000
FF800000
FF800000
FF800000
FF800000
FF800000
FF800000
FF800000
FF800000
FF800000
FF800000
FF800000
FF800000
FF800000
FF800000
FFFFFFF0
FFFFFFF0
FFFFFFF0
FFFFFFF0
FFFFFFF0
FFFFFFF0
FFFFFFF0
ENDCHAR
STARTCHAR 004D
ENCODING 77
SWIDTH 931 0
DWIDTH 54 0
BBX 46 42 4 0
BITMAP
FFFC0000FFFC
FFFC0000FFFC
FFFE0001FFFC
FFFE0001FFFC
FFFE0001FFFC
FFFE0003FFFC
FFFF0003FFFC
FFFF0003FFFC
FFFF0003FFFC
FF7F8007FBFC
FF7F8007FBFC
FF7F8007FBFC
FF3FC00FF3FC
FF3FC00FF3FC
FF3FC00FF3FC
FF3FC01FE3FC
FF1FE01FE3FC
FF1FE01FE3FC
FF1FE03FC3FC
FF0FF03FC3FC
FF0FF03FC3FC
FF0FF03FC3FC
FF07F87F83FC
FF07F87F83FC
FF07F87F83FC
FF03F8FF03FC
FF03FCFF03FC
FF03FCFF03FC
FF03FDFE03FC
FF01FFFE03FC
FF01FFFE03FC
FF01FFFC03FC
FF00FFFC03FC
FF00FFFC03FC
FF00FFFC03FC
FF007FF803FC
FF007FF803FC
FF007FF803FC
FF003FF003FC
FF003FF003FC
FF003FF003FC
FF001FE003FC
ENDCHAR
STARTCHAR 004E
ENCODING 78
SWIDTH 758 0
DWIDTH 44 0
BBX 36 42 4 0
BITMAP
FFF0000FF0
FFF8000FF0
FFF8000FF0
FFFC000FF0
FFFC000FF0
FFFE000FF0
FFFE000FF0
FFFF000FF0
FFFF000FF0
FFFF800FF0
FF7F800FF0
FF7F800FF0
FF3FC00FF0
FF3FC00FF0
FF1FE00FF0
FF1FE00FF0
FF0FF00FF0
FF0FF00FF0
FF07F80FF0
FF07F80FF0
FF03FC0FF0
FF03FC0FF0
FF01FE0FF0
FF01FE0FF0
FF00FF0FF0
FF00FF0FF0
FF007F8FF0
FF007F8FF0
FF003FCFF0
FF003FCFF0
FF001FEFF0
FF001FEFF0
FF000FFFF0
FF000FFFF0
FF000FFFF0
FF0007FFF0
FF0007FFF0
FF0003FFF0
FF0003FFF0
FF0001FFF0
FF0001FFF0
FF0000FFF0
ENDCHAR
STARTCHAR 004F
ENCODING 79
SWIDTH 793 0
DWIDTH 46 0
BBX 40 44 3 -1
BITMAP
0001FF8000
001FFFF800
007FFFFE00
00FFFFFF00
01FFFFFF80
03FFFFFFC0
07FFFFFFE0
0FFF00FFF0
1FFC003FF8
1FF8001FF8
3FF0000FFC
3FE00007FC
7FE00007FC
7FC00003FE
7FC00003FE
7FC00003FE
FF800003FF
FF800001FF
FF800001FF
FF800001FF
FF800001FF
FF800001FF
FF800001FF
FF800001FF
FF800001FF
FF800001FF
FF800001FF
FF800003FF
7FC00003FE
7FC00003FE
7FC00003FE
7FE00007FE
3FE00007FC
3FF0000FFC
1FF8001FF8
1FFC003FF8
0FFF00FFF0
07FFFFFFE0
03FFFFFFC0
01FFFFFF80
00FFFFFF00
007FFFFE00
001FFFF800
0001FF8000
ENDCHAR
STARTCHAR 0050
ENCODING 80
SWIDTH 655 0
DWIDTH 38 0
BBX 31 42 4 0
BITMAP
FFFFF000
FFFFFE00
FFFFFF80
FFFFFFE0
FFFFFFF0
FFFFFFF8
FFFFFFF8
FF803FFC
FF800FFC
FF8007FE
FF8003FE
FF8003FE
FF8003FE
FF8003FE
FF8003FE
FF8003FE
FF8007FE
FF800FFC
FF803FFC
FFFFFFFC
FFFFFFF8
FFFFFFF0
FFFFFFE0
FFFFFFC0
FFFFFF00
FFFFF000
FF800000
FF800000
FF800000
FF800000
FF800000
FF800000
FF800000
FF800000
FF800000
FF800000
FF800000
FF800000
FF800000
FF800000
FF800000
FF800000
ENDCHAR
STARTCHAR 0051
ENCODING 81
SWIDTH 827 0
DWIDTH 48 0
BBX 43 44 3 -1
BITMAP
0001FF800000
000FFFF00000
007FFFFC0000
00FFFFFF0000
01FFFFFF8000
03FFFFFFC000
07FFFFFFE000
0FFF00FFF000
1FFC003FF800
1FF8001FF800
3FF0000FFC00
3FE00007FC00
7FE00007FC00
7FC00003FE00
7FC00003FE00
7FC00003FE00
FF800003FF00
FF800001FF00
FF800001FF00
FF800001FF00
FF800001FF00
FF800001FF00
FF800001FF00
FF800001FF00
FF800001FF00
FF800001FF00
FF800001FF00
FF800003FE00
7FC00003FE00
7FC00003FE00
7FC00003FC00
7FE00007FC00
3FE00007F800
3FF0000FF800
1FF8001FF000
1FFC003FE000
0FFF00FFE3E0
07FFFFFFFFE0
03FFFFFFFFE0
01FFFFFFFFE0
00FFFFFFFFE0
003FFFFFFFE0
000FFFFFFFE0
0001FFC00000
ENDCHAR
STARTCHAR 0052
ENCODING 82
SWIDTH 672 0
DWIDTH 39 0
BBX 33 42 4 0
BITMAP
FFFFFC0000
FFFFFFC000
FFFFFFF000
FFFFFFF800
FFFFFFFC00
FFFFFFFE00
FFFFFFFE00
FF801FFE00
FF8007FF00
FF8003FF00
FF8001FF00
FF8001FF00
FF8001FF00
FF8001FF00
FF8001FE00
FF8003FE00
FF8007FC00
FF801FF800
FFFFFFF000
FFFFFFC000
FFFFFF0000
FFFFFF8000
FFFFFFE000
FFFFFFF000
FFFFFFF800
FF801FFC00
FF800FFC00
FF8007FC00
FF8007FC00
FF8003FC00
FF8003FE00
FF8003FE00
FF8003FE00
FF8003FE00
FF8001FE00
FF8001FE00
FF8001FF00
FF8001FF00
FF8001FF00
FF8001FF00
FF8001FF00
FF8000FF80
ENDCHAR
STARTCHAR 0053
ENCODING 83
SWIDTH 672 0
DWIDTH 39 0
BBX 33 44 3 -1
BITMAP
000FFC0000
007FFF8000
01FFFFE000
03FFFFF000
07FFFFF800
0FFFFFFC00
1FF81FFE00
3FE007FE00
3FC003FE00
7F8003FF00
7F8001FF00
7F8001FF00
7F80000000
7F80000000
7FC0000000
7FE0000000
3FF8000000
3FFF000000
1FFFE00000
1FFFFE0000
0FFFFFC000
03FFFFF000
00FFFFF800
003FFFFC00
0003FFFE00
00007FFF00
000007FF00
000001FF80
000000FF80
0000007F80
FF80007F80
FF80007F80
FF80007F80
FFC0007F80
7FC000FF00
7FE001FF00
3FF80FFF00
3FFFFFFE00
1FFFFFFC00
0FFFFFF800
07FFFFF000
01FFFFC000
007FFF0000
000FF80000
ENDCHAR
STARTCHAR 0054
ENCODING 84
SWIDTH 637 0
DWIDTH 37 0
BBX 33 42 2 0
BITMAP
FFFFFFFF80
FFFFFFFF80
FFFFFFFF80
FFFFFFFF80
FFFFFFFF80
FFFFFFFF80
FFFFFFFF80
000FF80000
000FF80000
000FF80000
000FF80000
000FF80000
000FF80000
000FF80000
000FF80000
000FF80000
000FF80000
000FF80000
000FF80000
000FF80000
000FF80000
000FF80000
000FF80000
000FF80000
000FF80000
000FF80000
000FF80000
000FF80000
000FF80000
000FF80000
000FF80000
000FF80000
000FF80000
000FF80000
000FF80000
000FF80000
000FF80000
000FF80000
000FF80000
000FF80000
000FF80000
000FF80000
ENDCHAR
STARTCHAR 0055
ENCODING 85
SWIDTH 758 0
DWIDTH 44 0
BBX 36 43 4 -1
BITMAP
FF80001FF0
FF80001FF0
FF80001FF0
FF80001FF0
FF80001FF0
FF80001FF0
FF80001FF0
FF80001FF0
FF80001FF0
FF80001FF0
FF80001FF0
FF80001FF0
FF80001FF0
FF80001FF0
FF80001FF0
FF80001FF0
FF80001FF0
FF80001FF0
FF80001FF0
FF80001FF0
FF80001FF0
FF80001FF0
FF80001FF0
FF80001FF0
FF80001FF0
FF80001FF0
FF80001FF0
FF80001FF0
FF80001FF0
FFC0003FF0
7FC0003FE0
7FC0003FE0
7FE0007FE0
3FE000FFC0
3FF801FFC0
1FFE07FF80
1FFFFFFF00
0FFFFFFF00
07FFFFFE00
03FFFFFC00
01FFFFF000
007FFFC000
0007FE0000
ENDCHAR
STARTCHAR 0056
ENCODING 86
SWIDTH 741 0
DWIDTH 43 0
BBX 41 42 1 0
BITMAP
FF800000FF80
FF800001FF80
FFC00001FF00
7FC00001FF00
7FC00003FF00
3FE00003FE00
3FE00003FE00
3FF00007FC00
1FF00007FC00
1FF00007FC00
1FF8000FF800
0FF8000FF800
0FF8001FF000
07FC001FF000
07FC001FF000
07FC003FE000
03FE003FE000
03FE003FE000
03FE007FC000
01FF007FC000
01FF007F8000
01FF80FF8000
00FF80FF8000
00FF80FF0000
007FC1FF0000
007FC1FF0000
007FC3FE0000
003FE3FE0000
003FE3FC0000
003FE7FC0000
001FF7FC0000
001FF7F80000
001FFFF80000
000FFFF80000
000FFFF00000
0007FFF00000
0007FFE00000
0007FFE00000
0003FFE00000
0003FFC00000
0003FFC00000
0001FF800000
ENDCHAR
STARTCHAR 0057
ENCODING 87
SWIDTH 1000 0
DWIDTH 58 0
BBX 56 42 1 0
BITMAP
FF8001FF8001FF
FF8001FF8001FF
FF8001FF8001FF
FFC003FF8003FF
7FC003FFC003FE
7FC003FFC003FE
7FC003FFC003FE
7FC007FFE003FE
3FE007FFE007FC
3FE007FFE007FC
3FE007FFE007FC
3FE00FFFF007FC
1FE00FF7F007F8
1FF00FE7F00FF8
1FF00FE7F00FF8
1FF01FE7F80FF8
0FF01FC3F80FF0
0FF01FC3F80FF0
0FF81FC3F81FF0
0FF83FC3FC1FF0
07F83F81FC1FE0
07F83F81FC1FE0
07F83F81FC1FE0
07FC7F81FE3FE0
03FC7F00FE3FC0
03FC7F00FE3FC0
03FC7F00FE3FC0
03FCFF00FF3FC0
01FEFE007F7F80
01FEFE007F7F80
01FEFE007F7F80
01FFFE007FFF80
00FFFC003FFF00
00FFFC003FFF00
00FFFC003FFF00
00FFFC003FFF00
007FF8001FFE00
007FF8001FFE00
007FF8001FFE00
007FF8001FFE00
003FF0000FFC00
003FF0000FFC00
ENDCHAR
STARTCHAR 0058
ENCODING 88
SWIDTH 689 0
DWIDTH 40 0
BBX 38 42 1 0
BITMAP
7FE0000FF8
3FF0001FF0
3FF0001FF0
1FF8003FE0
0FFC003FC0
0FFC007FC0
07FE00FF80
03FE00FF00
03FF01FF00
01FF81FE00
00FF83FC00
00FFC7FC00
007FE7F800
003FEFF000
003FFFF000
001FFFE000
000FFFC000
000FFFC000
0007FF8000
0003FF0000
0003FF0000
0007FF8000
0007FF8000
000FFFC000
001FFFE000
001FFFE000
003FDFF000
007F9FF800
007F8FF800
00FF07FC00
01FF07FE00
01FE03FE00
03FC01FF00
07FC01FF80
07F800FFC0
0FF0007FC0
1FF0007FE0
1FE0003FF0
3FE0003FF0
7FC0001FF8
7F80000FFC
FF80000FFC
ENDCHAR
STARTCHAR 0059
ENCODING 89
SWIDTH 672 0
DWIDTH 39 0
BBX 37 42 1 0
BITMAP
FFC0001FF8
7FC0001FF0
7FE0003FF0
3FE0003FE0
3FF0007FE0
1FF0007FC0
1FF800FFC0
0FF800FF80
07FC01FF00
07FC01FF00
03FE03FE00
03FE03FE00
01FF07FC00
01FF07FC00
00FF8FF800
00FF8FF800
007FDFF000
007FDFF000
003FFFE000
003FFFE000
001FFFC000
000FFF8000
000FFF8000
0007FF0000
0007FF0000
0003FE0000
0003FE0000
0003FE0000
0003FE0000
0003FE0000
0003FE0000
0003FE0000
0003FE0000
0003FE0000
0003FE0000
0003FE0000
0003FE0000
0003FE0000
0003FE0000
0003FE0000
0003FE0000
0003FE0000
ENDCHAR
STARTCHAR 005A
ENCODING 90
SWIDTH 637 0
DWIDTH 37 0
BBX 31 42 3 0
BITMAP
7FFFFFFE
7FFFFFFE
7FFFFFFE
7FFFFFFE
7FFFFFFE
7FFFFFFE
7FFFFFFE
00000FFE
00000FFC
00001FFC
00003FF8
00007FF0
00007FE0
0000FFC0
0001FFC0
0003FF80
0003FF00
0007FE00
000FFE00
001FFC00
001FF800
003FF000
007FE000
00FFE000
00FFC000
01FF8000
03FF0000
07FF0000
07FE0000
0FFC0000
1FF80000
3FF80000
7FF00000
7FE00000
FFC00000
FFFFFFFE
FFFFFFFE
FFFFFFFE
FFFFFFFE
FFFFFFFE
FFFFFFFE
FFFFFFFE
ENDCHAR
STARTCHAR 005B
ENCODING 91
SWIDTH 396 0
DWIDTH 23 0
BBX 13 54 5 -12
BITMAP
FFF8
FFF8
FFF8
FFF8
FFF8
FE00
FE00
FE00
FE00
FE00
FE00
FE00
FE00
FE00
FE00
FE00
FE00
FE00
FE00
FE00
FE00
FE00
FE00
FE00
FE00
FE00
FE00
FE00
FE00
FE00
FE00
FE00
FE00
FE00
FE00
FE00
FE00
FE00
FE00
FE00
FE00
FE00
FE00
FE00
FE00
FE00
FE00
FE00
FE00
FFF8
FFF8
FFF8
FFF8
FFF8
ENDCHAR
STARTCHAR 005C
ENCODING 92
SWIDTH 431 0
DWIDTH 25 0
BBX 19 46 3 -3
BITMAP
FC0000
FC0000
FC0000
7C0000
7E0000
7E0000
3E0000
3F0000
3F0000
3F0000
1F8000
1F8000
1F8000
0F8000
0FC000
0FC000
07C000
07E000
07E000
07E000
03F000
03F000
03F000
01F000
01F800
01F800
00F800
00FC00
00FC00
00FC00
007C00
007E00
007E00
003E00
003F00
003F00
001F00
001F80
001F80
001F80
000F80
000FC0
000FC0
0007C0
0007E0
0007E0
ENDCHAR
STARTCHAR 005D
ENCODING 93
SWIDTH 396 0
DWIDTH 23 0
BBX 13 54 5 -12
BITMAP
FFF8
FFF8
FFF8
FFF8
FFF8
03F8
03F8
03F8
03F8
03F8
03F8
03F8
03F8
03F8
03F8
03F8
03F8
03F8
03F8
03F8
03F8
03F8
03F8
03F8
03F8
03F8
03F8
03F8
03F8
03F8
03F8
03F8
03F8
03F8
03F8
03F8
03F8
03F8
03F8
03F8
03F8
03F8
03F8
03F8
03F8
03F8
03F8
03F8
03F8
FFF8
FFF8
FFF8
FFF8
FFF8
ENDCHAR
STARTCHAR 005E
ENCODING 94
SWIDTH 1000 0
DWIDTH 58 0
BBX 30 35 14 1
BITMAP
00078000
00078000
000FC000
000FC000
001FE000
001CE000
001CE000
003CF000
00387000
00387000
00787800
00703800
00F03C00
00E01C00
00E01C00
01E01E00
01C00E00
01C00E00
03C00F00
03800700
07800780
07000380
07000380
0F0003C0
0E0001C0
1E0001E0
1E0001E0
1C0000E0
3C0000F0
38000070
38000070
78000078
70000038
F000003C
F000003C
ENDCHAR
STARTCHAR 005F
ENCODING 95
SWIDTH 500 0
DWIDTH 29 0
BBX 29 4 0 -9
BITMAP
FFFFFFF8
FFFFFFF8
FFFFFFF8
FFFFFFF8
ENDCHAR
STARTCHAR 0060
ENCODING 96
SWIDTH 258 0
DWIDTH 15 0
BBX 12 11 -1 35
BITMAP
FE00
FF00
7F00
3F80
1F80
0FC0
07C0
07E0
03E0
01F0
00F0
ENDCHAR
STARTCHAR 0061
ENCODING 97
SWIDTH 551 0
DWIDTH 32 0
BBX 27 31 3 -1
BITMAP
007FC000
03FFF800
07FFFE00
1FFFFF00
1FFFFF80
3FE0FF80
3FC07F80
7F803FC0
7F803FC0
00003FC0
00003FC0
007FFFC0
03FFFFC0
0FFFFFC0
1FFFFFC0
3FFFFFC0
7FF03FC0
7FC03FC0
FF803FC0
FF003FC0
FF003FC0
FF003FC0
FF007FC0
FF007FC0
FF80FFC0
7FC1FFC0
7FFFFFC0
3FFFDFC0
1FFF9FC0
0FFE1FE0
01F80000
ENDCHAR
STARTCHAR 0062
ENCODING 98
SWIDTH 620 0
DWIDTH 36 0
BBX 29 43 4 -1
BITMAP
FF000000
FF000000
FF000000
FF000000
FF000000
FF000000
FF000000
FF000000
FF000000
FF000000
FF000000
FF000000
FF0FF000
FF3FFC00
FF7FFF00
FFFFFF80
FFFFFFC0
FFF07FC0
FFE03FE0
FFC01FE0
FF800FF0
FF800FF0
FF000FF0
FF0007F8
FF0007F8
FF0007F8
FF0007F8
FF0007F8
FF0007F8
FF0007F8
FF0007F8
FF0007F8
FF8007F0
FF800FF0
FF800FF0
FFC01FE0
FFE03FE0
FFF07FC0
FFFFFFC0
FF7FFF80
FF3FFF00
FF1FFC00
0007F000
ENDCHAR
STARTCHAR 0063
ENCODING 99
SWIDTH 517 0
DWIDTH 30 0
BBX 25 31 3 -1
BITMAP
007FC000
03FFF000
07FFFC00
0FFFFE00
1FFFFE00
3FE1FF00
3FC0FF00
7F80FF00
7F807F80
7F007F80
FF007F80
FF000000
FF000000
FF000000
FF000000
FF000000
FF000000
FF000000
FF000000
FF007F80
FF007F80
7F007F80
7F007F80
7F80FF00
7F80FF00
3FE1FF00
1FFFFE00
1FFFFC00
0FFFF800
03FFF000
007F8000
ENDCHAR
STARTCHAR 0064
ENCODING 100
SWIDTH 620 0
DWIDTH 36 0
BBX 29 43 3 -1
BITMAP
000007F8
000007F8
000007F8
000007F8
000007F8
000007F8
000007F8
000007F8
000007F8
000007F8
000007F8
000007F8
007F87F8
01FFE7F8
07FFF7F8
0FFFFFF8
1FFFFFF8
3FF07FF8
3FE03FF8
7FC01FF8
7FC00FF8
7F800FF8
7F8007F8
FF0007F8
FF0007F8
FF0007F8
FF0007F8
FF0007F8
FF0007F8
FF0007F8
FF0007F8
FF0007F8
7F000FF8
7F800FF8
7F800FF8
7FC01FF8
3FE03FF8
1FF07FF8
1FFFFFF8
0FFFF7F8
07FFE7F8
01FFC7F8
007F0000
ENDCHAR
STARTCHAR 0065
ENCODING 101
SWIDTH 568 0
DWIDTH 33 0
BBX 27 31 3 -1
BITMAP
003FC000
01FFF000
03FFFC00
0FFFFE00
1FFFFF00
1FE0FF80
3F807F80
7F803FC0
7F003FC0
7F003FC0
7F003FE0
FF003FE0
FFFFFFE0
FFFFFFE0
FFFFFFE0
FFFFFFE0
FFFFFFE0
FF000000
FF000000
FF000000
FF000000
7F003FC0
7F803FC0
7F803FC0
3FC07FC0
3FE0FF80
1FFFFF80
0FFFFF00
07FFFE00
03FFF800
007FC000
ENDCHAR
STARTCHAR 0066
ENCODING 102
SWIDTH 362 0
DWIDTH 21 0
BBX 20 43 1 0
BITMAP
003FC0
00FFF0
01FFF0
03FFF0
03FFF0
03FC10
07FC00
07F800
07F800
07F800
07F800
07F800
07F800
07F800
FFFFE0
FFFFE0
FFFFE0
FFFFE0
FFFFE0
07F800
07F800
07F800
07F800
07F800
07F800
07F800
07F800
07F800
07F800
07F800
07F800
07F800
07F800
07F800
07F800
07F800
07F800
07F800
07F800
07F800
07F800
07F800
07F800
ENDCHAR
STARTCHAR 0067
ENCODING 103
SWIDTH 620 0
DWIDTH 36 0
BBX 29 42 3 -12
BITMAP
007F8000
01FFE7F8
07FFF7F8
0FFFFFF8
1FFFFFF8
3FF07FF8
3FE03FF8
7FC01FF8
7FC00FF8
7F800FF8
7F8007F8
FF0007F8
FF0007F8
FF0007F8
FF0007F8
FF0007F8
FF0007F8
FF0007F8
FF0007F8
FF0007F8
7F800FF8
7F800FF8
7FC01FF8
3FC03FF8
3FF07FF8
1FFFFFF8
0FFFF7F8
07FFE7F8
03FFC7F8
007F07F8
000007F8
000007F8
000007F8
7F8007F8
7F800FF0
7FC01FF0
3FE03FE0
3FFFFFE0
1FFFFFC0
0FFFFF00
03FFFE00
007FF000
ENDCHAR
STARTCHAR 0068
ENCODING 104
SWIDTH 603 0
DWIDTH 35 0
BBX 27 42 4 0
BITMAP
FF000000
FF000000
FF000000
FF000000
FF000000
FF000000
FF000000
FF000000
FF000000
FF000000
FF000000
FF000000
FF07F800
FF3FFE00
FF7FFF00
FFFFFF80
FFFFFFC0
FFF0FFC0
FFE07FE0
FFC03FE0
FF801FE0
FF801FE0
FF001FE0
FF001FE0
FF001FE0
FF001FE0
FF001FE0
FF001FE0
FF001FE0
FF001FE0
FF001FE0
FF001FE0
FF001FE0
FF001FE0
FF001FE0
FF001FE0
FF001FE0
FF001FE0
FF001FE0
FF001FE0
FF001FE0
FF001FE0
ENDCHAR
STARTCHAR 0069
ENCODING 105
SWIDTH 258 0
DWIDTH 15 0
BBX 9 42 3 0
BITMAP
FF80
FF80
FF80
FF80
FF80
FF80
FF80
FF80
0000
0000
0000
0000
0000
7F80
7F80
7F80
7F80
7F80
7F80
7F80
7F80
7F80
7F80
7F80
7F80
7F80
7F80
7F80
7F80
7F80
7F80
7F80
7F80
7F80
7F80
7F80
7F80
7F80
7F80
7F80
7F80
7F80
ENDCHAR
STARTCHAR 006A
ENCODING 106
SWIDTH 344 0
DWIDTH 20 0
BBX 11 55 6 -12
BITMAP
3FE0
3FE0
3FE0
3FE0
3FE0
3FE0
3FE0
3FE0
0000
0000
0000
0000
0000
1FE0
1FE0
1FE0
1FE0
1FE0
1FE0
1FE0
1FE0
1FE0
1FE0
1FE0
1FE0
1FE0
1FE0
1FE0
1FE0
1FE0
1FE0
1FE0
1FE0
1FE0
1FE0
1FE0
1FE0
1FE0
1FE0
1FE0
1FE0
1FE0
1FE0
1FE0
1FE0
1FE0
1FE0
3FE0
7FE0
FFE0
FFC0
FFC0
FFC0
FF80
FE00
ENDCHAR
STARTCHAR 006B
ENCODING 107
SWIDTH 551 0
DWIDTH 32 0
BBX 27 42 4 0
BITMAP
FF000000
FF000000
FF000000
FF000000
FF000000
FF000000
FF000000
FF000000
FF000000
FF000000
FF000000
FF000000
FF000000
FF007FC0
FF00FF80
FF01FF00
FF03FE00
FF07FE00
FF07FC00
FF0FF800
FF1FF000
FF3FE000
FF7FC000
FF7FC000
FFFF8000
FFFF0000
FFFF8000
FFFF8000
FF7FC000
FF3FE000
FF3FE000
FF1FF000
FF0FF800
FF0FF800
FF07FC00
FF03FE00
FF03FF00
FF01FF00
FF00FF80
FF00FFC0
FF007FC0
FF007FE0
ENDCHAR
STARTCHAR 006C
ENCODING 108
SWIDTH 275 0
DWIDTH 16 0
BBX 8 42 4 0
BITMAP
FF
FF
FF
FF
FF
FF
FF
FF
FF
FF
FF
FF
FF
FF
FF
FF
FF
FF
FF
FF
FF
FF
FF
FF
FF
FF
FF
FF
FF
FF
FF
FF
FF
FF
FF
FF
FF
FF
FF
FF
FF
FF
ENDCHAR
STARTCHAR 006D
ENCODING 109
SWIDTH 931 0
DWIDTH 54 0
BBX 46 30 4 0
BITMAP
0003F800FF00
FF1FFE03FFC0
FF3FFF0FFFE0
FF7FFF9FFFF0
FFFFFFDFFFF0
FFF0FFFE1FF8
FFE07FF80FF8
FFC03FF007FC
FF803FF007FC
FF001FE003FC
FF001FE003FC
FF001FE003FC
FF001FE003FC
FF001FE003FC
FF001FE003FC
FF001FE003FC
FF001FE003FC
FF001FE003FC
FF001FE003FC
FF001FE003FC
FF001FE003FC
FF001FE003FC
FF001FE003FC
FF001FE003FC
FF001FE003FC
FF001FE003FC
FF001FE003FC
FF001FE003FC
FF001FE003FC
FF001FE003FC
ENDCHAR
STARTCHAR 006E
ENCODING 110
SWIDTH 603 0
DWIDTH 35 0
BBX 27 30 4 0
BITMAP
0007F800
FF1FFE00
FF3FFF00
FF7FFF80
FFFFFFC0
FFF0FFC0
FFC07FE0
FF803FE0
FF801FE0
FF001FE0
FF001FE0
FF001FE0
FF001FE0
FF001FE0
FF001FE0
FF001FE0
FF001FE0
FF001FE0
FF001FE0
FF001FE0
FF001FE0
FF001FE0
FF001FE0
FF001FE0
FF001FE0
FF001FE0
FF001FE0
FF001FE0
FF001FE0
FF001FE0
ENDCHAR
STARTCHAR 006F
ENCODING 111
SWIDTH 603 0
DWIDTH 35 0
BBX 30 31 3 -1
BITMAP
001FE000
00FFFC00
03FFFE00
07FFFF80
0FFFFFC0
1FF07FE0
3FE01FE0
3FC00FF0
7F8007F0
7F8007F8
7F0007F8
FF0003F8
FF0003FC
FF0003FC
FF0003FC
FF0003FC
FF0003FC
FF0003FC
FF0003FC
FF0003F8
7F0007F8
7F8007F8
7F8007F0
3FC00FF0
3FE01FE0
1FF03FE0
0FFFFFC0
07FFFF80
03FFFE00
00FFFC00
001FE000
ENDCHAR
STARTCHAR 0070
ENCODING 112
SWIDTH 620 0
DWIDTH 36 0
BBX 29 41 4 -12
BITMAP
FF07F000
FF1FFC00
FF3FFF00
FF7FFF80
FFFFFFC0
FFF07FC0
FFE03FE0
FFC01FF0
FF800FF0
FF800FF0
FF0007F8
FF0007F8
FF0007F8
FF0007F8
FF0007F8
FF0007F8
FF0007F8
FF0007F8
FF0007F8
FF000FF8
FF800FF0
FF800FF0
FFC01FF0
FFC03FE0
FFF07FE0
FFFFFFC0
FFFFFF80
FF7FFF00
FF3FFE00
FF0FF000
FF000000
FF000000
FF000000
FF000000
FF000000
FF000000
FF000000
FF000000
FF000000
FF000000
FF000000
ENDCHAR
STARTCHAR 0071
ENCODING 113
SWIDTH 620 0
DWIDTH 36 0
BBX 29 41 3 -12
BITMAP
007F07F8
01FFC7F8
07FFE7F8
0FFFF7F8
1FFFFFF8
3FF07FF8
3FE03FF8
7FC01FF8
7F800FF8
7F800FF8
FF000FF8
FF0007F8
FF0007F8
FF0007F8
FF0007F8
FF0007F8
FF0007F8
FF0007F8
FF0007F8
FF8007F8
7F800FF8
7F800FF8
7FC01FF8
3FE03FF8
3FF07FF8
1FFFFFF8
0FFFFFF8
07FFF7F8
03FFE7F8
007F87F8
000007F8
000007F8
000007F8
000007F8
000007F8
000007F8
000007F8
000007F8
000007F8
000007F8
000007F8
ENDCHAR
STARTCHAR 0072
ENCODING 114
SWIDTH 396 0
DWIDTH 23 0
BBX 18 30 4 0
BITMAP
0007C0
FF1FC0
FF3FC0
FF7FC0
FFFFC0
FFFFC0
FFFFC0
FFFC00
FFE000
FFC000
FF8000
FF8000
FF0000
FF0000
FF0000
FF0000
FF0000
FF0000
FF0000
FF0000
FF0000
FF0000
FF0000
FF0000
FF0000
FF0000
FF0000
FF0000
FF0000
FF0000
ENDCHAR
STARTCHAR 0073
ENCODING 115
SWIDTH 534 0
DWIDTH 31 0
BBX 25 31 3 -1
BITMAP
00FF8000
03FFF000
0FFFF800
1FFFFC00
3FFFFE00
3FC1FE00
7F80FF00
7F80FF00
7F80FF00
7F800000
7FC00000
7FF80000
3FFF8000
3FFFF000
1FFFFC00
07FFFE00
01FFFF00
003FFF00
0003FF80
0000FF80
00007F80
FF007F80
FF007F80
FF007F80
7F80FF00
7FC1FF00
7FFFFE00
3FFFFE00
1FFFF800
07FFF000
01FF8000
ENDCHAR
STARTCHAR 0074
ENCODING 116
SWIDTH 413 0
DWIDTH 24 0
BBX 21 38 2 0
BITMAP
000C00
003C00
00FC00
03FC00
03FC00
03FC00
03FC00
03FC00
FFFFF8
FFFFF8
FFFFF8
FFFFF8
FFFFF8
03FC00
03FC00
03FC00
03FC00
03FC00
03FC00
03FC00
03FC00
03FC00
03FC00
03FC00
03FC00
03FC00
03FC00
03FC00
03FC00
03FC00
03FC00
03FE00
03FF00
01FFF8
01FFF8
00FFF8
007FF8
000FF0
ENDCHAR
STARTCHAR 0075
ENCODING 117
SWIDTH 603 0
DWIDTH 35 0
BBX 27 30 4 -1
BITMAP
FF001FE0
FF001FE0
FF001FE0
FF001FE0
FF001FE0
FF001FE0
FF001FE0
FF001FE0
FF001FE0
FF001FE0
FF001FE0
FF001FE0
FF001FE0
FF001FE0
FF001FE0
FF001FE0
FF001FE0
FF001FE0
FF001FE0
FF001FE0
FF001FE0
FF003FE0
FF803FE0
FF807FE0
7FE1FFE0
7FFFFFE0
3FFFDFE0
1FFF9FE0
0FFF1FE0
03FC0000
ENDCHAR
STARTCHAR 0076
ENCODING 118
SWIDTH 551 0
DWIDTH 32 0
BBX 30 29 1 0
BITMAP
FF0007FC
FF0007F8
FF8007F8
7F800FF8
7F800FF0
3FC00FF0
3FC01FF0
3FC01FE0
1FE01FE0
1FE03FC0
1FF03FC0
0FF03FC0
0FF07F80
07F87F80
07F87F80
07F8FF00
03FCFF00
03FCFE00
03FDFE00
01FFFE00
01FFFC00
00FFFC00
00FFFC00
00FFF800
007FF800
007FF000
007FF000
003FF000
003FE000
ENDCHAR
STARTCHAR 0077
ENCODING 119
SWIDTH 862 0
DWIDTH 50 0
BBX 48 29 1 0
BITMAP
FF001FF800FF
FF001FF800FF
FF003FF801FE
7F803FF801FE
7F803FFC01FE
7F803FFC03FC
3FC07FFC03FC
3FC07FFE03FC
3FC07FFE03F8
3FC0FFFE07F8
1FE0FEFF07F8
1FE0FE7F07F8
1FE1FE7F0FF0
0FF1FC7F8FF0
0FF1FC3F8FF0
0FF3FC3F9FE0
07F3FC3FDFE0
07FBF83FDFE0
07FFF81FDFC0
03FFF81FFFC0
03FFF01FFFC0
03FFF00FFFC0
03FFF00FFF80
01FFE00FFF80
01FFE007FF80
01FFE007FF00
00FFE007FF00
00FFC007FF00
00FFC003FE00
ENDCHAR
STARTCHAR 0078
ENCODING 120
SWIDTH 551 0
DWIDTH 32 0
BBX 30 29 1 0
BITMAP
7FC00FF8
3FE00FF0
3FE01FE0
1FF03FE0
0FF83FC0
0FF87F80
07FC7F80
03FEFF00
03FFFE00
01FFFE00
00FFFC00
007FF800
007FF800
003FF000
007FF800
007FF800
00FFFC00
01FFFE00
01FFFE00
03FDFF00
07F8FF80
07F8FF80
0FF07FC0
1FF07FE0
1FE03FE0
3FC01FF0
7FC01FF8
7F800FF8
FF8007FC
ENDCHAR
STARTCHAR 0079
ENCODING 121
SWIDTH 551 0
DWIDTH 32 0
BBX 30 41 1 -12
BITMAP
FF8007FC
FF8007F8
7F8007F8
7FC00FF8
7FC00FF0
3FC00FF0
3FE01FF0
1FE01FE0
1FF01FE0
1FF03FE0
0FF03FC0
0FF83FC0
07F87FC0
07F87F80
07FC7F80
03FCFF00
03FCFF00
03FEFF00
01FFFE00
01FFFE00
00FFFE00
00FFFC00
00FFFC00
007FFC00
007FF800
003FF800
003FF800
003FF000
001FF000
001FE000
001FE000
003FE000
003FC000
003FC000
007FC000
007F8000
007F8000
00FF8000
00FF0000
01FF0000
01FF0000
ENDCHAR
STARTCHAR 007A
ENCODING 122
SWIDTH 517 0
DWIDTH 30 0
BBX 24 29 3 0
BITMAP
FFFFFE
FFFFFE
FFFFFE
FFFFFE
FFFFFE
0003FE
0003FE
0007FC
000FF8
001FF0
003FE0
007FC0
007FC0
00FF80
01FF00
03FE00
07FC00
0FF800
0FF000
1FF000
3FE000
7FC000
FF8000
FF0000
FFFFFF
FFFFFF
FFFFFF
FFFFFF
FFFFFF
ENDCHAR
STARTCHAR 007B
ENCODING 123
SWIDTH 517 0
DWIDTH 30 0
BBX 21 58 5 -14
BITMAP
0001F8
001FF8
003FF8
007FF8
00FFF8
00FF80
01FF00
01FE00
01FE00
01FE00
01FE00
01FE00
01FE00
01FE00
01FE00
01FE00
01FE00
01FE00
01FE00
01FE00
01FC00
03FC00
03FC00
03FC00
07F800
1FF000
FFE000
FFC000
FF0000
FF0000
FFC000
FFE000
1FF000
0FF800
07FC00
03FC00
03FC00
01FC00
01FE00
01FE00
01FE00
01FE00
01FE00
01FE00
01FE00
01FE00
01FE00
01FE00
01FE00
01FE00
01FE00
01FF00
00FF80
00FFF8
007FF8
003FF8
001FF8
0001F8
ENDCHAR
STARTCHAR 007C
ENCODING 124
SWIDTH 344 0
DWIDTH 20 0
BBX 4 62 8 -15
BITMAP
F0
F0
F0
F0
F0
F0
F0
F0
F0
F0
F0
F0
F0
F0
F0
F0
F0
F0
F0
F0
F0
F0
F0
F0
F0
F0
F0
F0
F0
F0
F0
F0
F0
F0
F0
F0
F0
F0
F0
F0
F0
F0
F0
F0
F0
F0
F0
F0
F0
F0
F0
F0
F0
F0
F0
F0
F0
F0
F0
F0
F0
F0
ENDCHAR
STARTCHAR 007D
ENCODING 125
SWIDTH 517 0
DWIDTH 30 0
BBX 21 58 5 -14
BITMAP
FC0000
FF8000
FFE000
FFF000
FFF800
0FF800
07F800
03FC00
03FC00
03FC00
03FC00
03FC00
03FC00
03FC00
03FC00
03FC00
03FC00
03FC00
03FC00
03FC00
03FC00
01FE00
01FE00
01FF00
00FF80
00FFC0
007FF8
001FF8
000FF8
000FF8
001FF8
007FF8
00FF80
00FF00
01FE00
01FE00
01FC00
03FC00
03FC00
03FC00
03FC00
03FC00
03FC00
03FC00
03FC00
03FC00
03FC00
03FC00
03FC00
03FC00
03FC00
07F800
0FF800
FFF800
FFF000
FFE000
FF8000
FC0000
ENDCHAR
STARTCHAR 007E
ENCODING 126
SWIDTH 534 0
DWIDTH 31 0
BBX 31 7 0 12
BITMAP
03F8007E
0FFF00FC
1FFFE1FC
3FFFFFF8
7F0FFFF0
7C01FFE0
FC003F80
ENDCHAR
STARTCHAR 00A0
ENCODING 160
SWIDTH 293 0
DWIDTH 17 0
BBX 0 0 0 0
BITMAP
ENDCHAR
STARTCHAR 00A1
ENCODING 161
SWIDTH 413 0
DWIDTH 24 0
BBX 8 41 8 -12
BITMAP
FF
FF
FF
FF
FF
FF
FF
00
00
00
00
FF
FF
FF
FF
FF
FF
FF
FF
FF
FF
FF
FF
FF
FF
FF
FF
FF
FF
FF
FF
FF
FF
FF
FF
FF
FF
FF
FF
FF
FF
ENDCHAR
STARTCHAR 00A2
ENCODING 162
SWIDTH 586 0
DWIDTH 34 0
BBX 26 44 4 -7
BITMAP
00003C00
00003800
00007800
00007800
00007000
00007000
007FF000
01FFF800
07FFFC00
0FFFFF00
1FFFFF00
1FE1FF80
3FC3FF80
7F83FFC0
7F83BFC0
7F07BFC0
7F073FC0
FF070000
FF070000
FF0E0000
FF0E0000
FF0E0000
FF1E0000
FF1C0000
FF1C0000
FF3C3FC0
FF383FC0
7F383FC0
7FB83FC0
7FF07FC0
3FF07F80
3FF0FF80
1FFFFF00
0FFFFE00
07FFFC00
01FFF800
01FFC000
01C00000
03C00000
03800000
03800000
07800000
07000000
07000000
ENDCHAR
STARTCHAR 00A3
ENCODING 163
SWIDTH 568 0
DWIDTH 33 0
BBX 29 43 3 0
BITMAP
000FFC00
007FFF80
01FFFFC0
03FFFFE0
03FFFFF0
07FC1FF0
07F80FF0
0FF807F8
0FF007F8
0FF007F8
0FF00000
0FF00000
0FF00000
0FF00000
0FF00000
0FF00000
0FF00000
FFFFF000
FFFFF000
FFFFF000
FFFFF000
FFFFF000
0FF00000
0FF00000
0FF00000
0FF00000
0FF00000
0FF00000
0FF00000
0FF00000
0FF00000
0FF00000
0FF00000
0FF00000
0FF00000
0FF00000
0FF00000
0FF00000
FFFFFFF8
FFFFFFF8
FFFFFFF8
FFFFFFF8
FFFFFFF8
ENDCHAR
STARTCHAR 00A4
ENCODING 164
SWIDTH 603 0
DWIDTH 35 0
BBX 30 31 3 11
BITMAP
60000018
F000003C
78000078
3C1FE0F0
1E7FF9E0
1FFFFFC0
0FF03FC0
07C00F80
07800780
0F0003C0
0E0001C0
1E0001C0
1C0000E0
1C0000E0
1C0000E0
1C0000E0
1C0000E0
1C0000E0
1C0000E0
1E0001C0
0E0001C0
0F0003C0
07800780
07C00F80
0FF03FC0
1FFFFFE0
3C7FF8F0
781FE078
F000003C
E000001C
40000008
ENDCHAR
STARTCHAR 00A5
ENCODING 165
SWIDTH 586 0
DWIDTH 34 0
BBX 32 42 1 0
BITMAP
FF0000FF
FF8001FF
7F8001FE
7FC003FE
3FC003FC
3FE007FC
1FE007F8
1FE00FF8
0FF00FF0
0FF00FF0
07F81FE0
FFF81FFF
FFFC3FFF
FFFC3FFF
FFFE7FFF
01FE7F80
00FFFF00
00FFFF00
00FFFE00
007FFE00
007FFE00
003FFC00
FFFFFFFF
FFFFFFFF
FFFFFFFF
FFFFFFFF
000FF000
000FF000
000FF000
000FF000
000FF000
000FF000
000FF000
000FF000
000FF000
000FF000
000FF000
000FF000
000FF000
000FF000
000FF000
000FF000
ENDCHAR
STARTCHAR 00A6
ENCODING 166
SWIDTH 344 0
DWIDTH 20 0
BBX 3 54 9 -12
BITMAP
E0
E0
E0
E0
E0
E0
E0
E0
E0
E0
E0
E0
E0
E0
E0
E0
E0
E0
E0
E0
E0
E0
E0
00
00
00
00
00
00
00
00
E0
E0
E0
E0
E0
E0
E0
E0
E0
E0
E0
E0
E0
E0
E0
E0
E0
E0
E0
E0
E0
E0
E0
ENDCHAR
STARTCHAR 00A7
ENCODING 167
SWIDTH 465 0
DWIDTH 27 0
BBX 23 53 2 -10
BITMAP
007FC0
03FFF0
07FFF8
0FFFF8
1FFFF8
3FE0F8
3F8018
7F0000
7F0000
7F0000
7F0000
7F8000
3FC000
3FF000
1FFC00
0FFF00
07FF80
03FFE0
07FFF0
1FFFF8
3FFFFC
7FC3FC
7F81FE
7F00FE
FE00FE
FE00FE
FE00FE
FE01FC
FF03FC
FF8FF8
7FFFF0
7FFFE0
3FFFC0
1FFF80
07FFE0
01FFF0
007FF8
001FFC
0007FC
0003FE
0001FE
0000FE
0000FE
0000FE
4001FE
7003FC
7C0FFC
7FFFF8
7FFFF0
7FFFE0
7FFFC0
1FFF00
03FC00
ENDCHAR
STARTCHAR 00A8
ENCODING 168
SWIDTH 310 0
DWIDTH 18 0
BBX 18 7 0 37
BITMAP
FC0FC0
FC0FC0
FC0FC0
FC0FC0
FC0FC0
FC0FC0
FC0FC0
ENDCHAR
STARTCHAR 00A9
ENCODING 169
SWIDTH 844 0
DWIDTH 49 0
BBX 43 44 3 -1
BITMAP
00007FC00000
0003FFF80000
001FFFFF0000
003FFFFF8000
00FF803FC000
01FC0007F000
03F80003F800
07E00000FC00
0FC03FC07C00
0F80FFF03E00
1F01FFFC1F00
1E07FFFE0F00
3E07FFFE0F80
3C0FF0FF0780
7C1FC07F07C0
781FC03F83C0
781F803F83C0
F83F803F83E0
F03F800001E0
F03F800001E0
F03F800001E0
F03F800001E0
F03F800001E0
F03F800001E0
F03F803F81E0
F03F803F81E0
F01F803F83E0
781FC03F83C0
781FC07F03C0
7C0FE0FF07C0
3C0FFFFE0780
3E07FFFE0F80
3E03FFF80F00
1F00FFF01F00
0F803FC03E00
0FC000007E00
07E00000FC00
03F00003F800
01FC0007F000
00FF803FE000
003FFFFF8000
001FFFFF0000
0007FFF80000
00007FC00000
ENDCHAR
STARTCHAR 00AA
ENCODING 170
SWIDTH 379 0
DWIDTH 22 0
BBX 20 28 1 14
BITMAP
01FC00
07FF00
1FFFC0
1F87C0
3F03E0
3F03E0
0003E0
0003E0
01FFE0
0FFFE0
1FFFE0
3F83E0
7F03E0
7E03E0
7E03E0
7E03E0
7E07E0
7F0FE0
3FFFE0
1FF9E0
0FF1E0
008000
000000
000000
000000
FFFFF0
FFFFF0
FFFFF0
ENDCHAR
STARTCHAR 00AB
ENCODING 171
SWIDTH 603 0
DWIDTH 35 0
BBX 29 23 3 3
BITMAP
03FC07F8
03F807F0
07F80FF0
0FF01FE0
0FF01FE0
1FF03FC0
1FE03FC0
3FE07FC0
3FC07F80
7FC0FF80
7F80FF00
FF81FF00
7F80FF00
7FC0FF80
3FC07F80
3FE07FC0
1FE03FC0
1FF03FC0
0FF01FE0
07F01FE0
07F80FF0
03F807F0
03FC07F8
ENDCHAR
STARTCHAR 00AC
ENCODING 172
SWIDTH 620 0
DWIDTH 36 0
BBX 32 13 2 11
BITMAP
FFFFFFFF
FFFFFFFF
FFFFFFFF
0000000F
0000000F
0000000F
0000000F
0000000F
0000000F
0000000F
0000000F
0000000F
0000000F
ENDCHAR
STARTCHAR 00AE
ENCODING 174
SWIDTH 844 0
DWIDTH 49 0
BBX 43 44 3 -1
BITMAP
00007FC00000
0003FFF80000
001FFFFF0000
003FFFFF8000
00FF803FC000
01FC0007F000
03F80003F800
07E00000FC00
0FC000007C00
0F87FFE03E00
1F07FFF81F00
1E07FFFC0F00
3E07FFFE0F80
3C07C07F0780
7C07C03F07C0
7807C01F03C0
7807C01F03C0
F807C01F03E0
F007C03E01E0
F007C0FC01E0
F007FFF801E0
F007FFE001E0
F007FFF801E0
F007FFFC01E0
F007C07E01E0
F007C03E01E0
F007C03E03E0
7807C03E03C0
7807C03E03C0
7C07C01E07C0
3C07C01F0780
3E07C01F0F80
3E07C01F0F00
1F07C01F1F00
0F8000003E00
0FC000007E00
07E00000FC00
03F00003F800
01FC0007F000
00FF803FE000
003FFFFF8000
001FFFFF0000
0007FFF80000
00007FC00000
ENDCHAR
STARTCHAR 00AF
ENCODING 175
SWIDTH 327 0
DWIDTH 19 0
BBX 19 5 0 37
BITMAP
FFFFE0
FFFFE0
FFFFE0
FFFFE0
FFFFE0
ENDCHAR
STARTCHAR 00B0
ENCODING 176
SWIDTH 327 0
DWIDTH 19 0
BBX 13 13 3 29
BITMAP
0F80
3FE0
78F0
6030
E038
C018
C018
C018
E038
6030
78F0
3FE0
0F80
ENDCHAR
STARTCHAR 00B1
ENCODING 177
SWIDTH 1017 0
DWIDTH 59 0
BBX 35 35 12 0
BITMAP
0001E00000
0001E00000
0001E00000
0001E00000
0001E00000
0001E00000
0001E00000
0001E00000
0001E00000
0001E00000
FFFFFFFFE0
FFFFFFFFE0
FFFFFFFFE0
FFFFFFFFE0
0001E00000
0001E00000
0001E00000
0001E00000
0001E00000
0001E00000
0001E00000
0001E00000
0001E00000
0001E00000
0001E00000
0000000000
0000000000
0000000000
0000000000
0000000000
0000000000
FFFFFFFFE0
FFFFFFFFE0
FFFFFFFFE0
FFFFFFFFE0
ENDCHAR
STARTCHAR 00B2
ENCODING 178
SWIDTH 379 0
DWIDTH 22 0
BBX 18 23 2 20
BITMAP
03F800
1FFE00
3FFF00
7E1F80
FC0FC0
FC0FC0
000FC0
000FC0
001FC0
003F80
007F80
00FF00
01FE00
03FC00
07F000
0FE000
1F8000
7F0000
FC0000
FFFFC0
FFFFC0
FFFFC0
FFFFC0
ENDCHAR
STARTCHAR 00B3
ENCODING 179
SWIDTH 379 0
DWIDTH 22 0
BBX 18 23 2 20
BITMAP
07F000
1FFC00
7FFF00
7E3F00
FC1F80
FC1F80
001F80
001F80
003F00
03FE00
03F800
03FE00
003F80
001F80
000FC0
000FC0
FC0FC0
FC0FC0
FC1F80
7E1F80
7FFF00
1FFC00
07F000
ENDCHAR
STARTCHAR 00B4
ENCODING 180
SWIDTH 224 0
DWIDTH 13 0
BBX 12 11 3 35
BITMAP
07F0
0FE0
0FE0
1FC0
1F80
3F00
3E00
7C00
7C00
F800
F000
ENDCHAR
STARTCHAR 00B6
ENCODING 182
SWIDTH 568 0
DWIDTH 33 0
BBX 27 51 3 -9
BITMAP
007FFFE0
03FFFFE0
07FFFFE0
1FFE0F00
1FFE0F00
3FFE0F00
7FFE0F00
7FFE0F00
FFFE0F00
FFFE0F00
FFFE0F00
FFFE0F00
FFFE0F00
FFFE0F00
FFFE0F00
7FFE0F00
7FFE0F00
3FFE0F00
1FFE0F00
0FFE0F00
03FE0F00
007E0F00
001E0F00
001E0F00
001E0F00
001E0F00
001E0F00
001E0F00
001E0F00
001E0F00
001E0F00
001E0F00
001E0F00
001E0F00
001E0F00
001E0F00
001E0F00
001E0F00
001E0F00
001E0F00
001E0F00
001E0F00
001E0F00
001E0F00
001E0F00
001E0F00
001E0F00
001E0F00
001E0F00
001E0F00
001E0F00
ENDCHAR
STARTCHAR 00B7
ENCODING 183
SWIDTH 293 0
DWIDTH 17 0
BBX 8 8 5 16
BITMAP
FF
FF
FF
FF
FF
FF
FF
FF
ENDCHAR
STARTCHAR 00B8
ENCODING 184
SWIDTH 258 0
DWIDTH 15 0
BBX 14 14 3 -14
BITMAP
1C00
1C00
1C00
1FC0
1FF0
1FF8
01FC
00FC
007C
007C
80FC
FFF8
FFF0
FF80
ENDCHAR
STARTCHAR 00B9
ENCODING 185
SWIDTH 293 0
DWIDTH 17 0
BBX 11 23 3 20
BITMAP
07E0
0FE0
3FE0
FFE0
FFE0
F7E0
C7E0
07E0
07E0
07E0
07E0
07E0
07E0
07E0
07E0
07E0
07E0
07E0
07E0
07E0
07E0
07E0
07E0
ENDCHAR
STARTCHAR 00BA
ENCODING 186
SWIDTH 396 0
DWIDTH 23 0
BBX 21 28 1 14
BITMAP
01FC00
07FF00
0FFF80
1F8FC0
3E07E0
7E03F0
7C03F0
FC01F0
FC01F8
FC01F8
FC01F8
FC01F8
FC01F8
FC01F8
FC03F8
7E03F0
7E03F0
3F8FE0
1FFFC0
1FFF80
07FF00
01FC00
000000
000000
000000
FFFFF8
FFFFF8
FFFFF8
ENDCHAR
STARTCHAR 00BB
ENCODING 187
SWIDTH 603 0
DWIDTH 35 0
BBX 29 23 3 3
BITMAP
FF01FE00
7F00FE00
7F80FF00
3FC07F80
3FC07F80
1FE03FC0
1FE03FC0
1FF03FE0
0FF01FE0
0FF81FF0
07F80FF0
07FC0FF8
07F80FF0
0FF81FF0
0FF01FE0
1FF03FE0
1FE03FC0
1FE03FC0
3FC07F80
3FC07F80
7F80FF00
7F00FE00
FF01FE00
ENDCHAR
STARTCHAR 00BC
ENCODING 188
SWIDTH 793 0
DWIDTH 46 0
BBX 41 44 3 -1
BITMAP
07E00007E000
0FE0000FC000
3FE0000FC000
FFE0001F8000
FFE0001F0000
E7E0003F0000
87E0003E0000
07E0007E0000
07E000FC0000
07E000FC0000
07E001F80000
07E001F80000
07E003F00000
07E003F00000
07E007E00000
07E007C00000
07E00FC00000
07E01F800000
07E01F800000
07E03F000000
07E03F000000
07E07E00FE00
07E07E01FE00
0000FC03FE00
0000F803FE00
0001F807FE00
0003F00FFE00
0003F00FFE00
0007E01F7E00
0007E03E7E00
000FC03E7E00
000FC07C7E00
001F80F87E00
001F00F87E00
003F01F07E00
003E01FFFF80
007E01FFFF80
00FC01FFFF80
00FC01FFFF80
01F800007E00
01F800007E00
03F000007E00
03E000007E00
07E000007E00
ENDCHAR
STARTCHAR 00BD
ENCODING 189
SWIDTH 810 0
DWIDTH 47 0
BBX 42 43 3 0
BITMAP
07E0000FC000
0FE0000F8000
3FE0001F8000
FFE0003F0000
FFE0003F0000
E7E0007E0000
87E0007E0000
07E000FC0000
07E000F80000
07E001F80000
07E003F00000
07E003F00000
07E007E00000
07E007E00000
07E00FC00000
07E00F800000
07E01F800000
07E03F000000
07E03F000000
07E07E000000
07E07E03F800
07E0FC1FFE00
07E0F83FFF00
0001F87E1F80
0003F0FC0FC0
0003F0FC0FC0
0007E0000FC0
0007E0000FC0
000FC0001FC0
000F80003F80
001F80007F80
003F0000FF00
003F0001FE00
007E0003FC00
007E000FF000
00FC001FE000
00F8003F8000
01F800FF0000
03F001FC0000
03F001FFFF80
07E001FFFF80
07E001FFFF80
0FC001FFFF80
ENDCHAR
STARTCHAR 00BE
ENCODING 190
SWIDTH 793 0
DWIDTH 46 0
BBX 42 44 2 -1
BITMAP
07F00000FC00
1FFC0001F800
3FFE0001F800
7E3F0003F000
FC1F8003F000
FC1F8007E000
001F800FE000
001F800FC000
001F801F8000
007F001F8000
03FE003F0000
03F8003F0000
03FE007E0000
003F807E0000
000FC0FC0000
000FC0FC0000
000FC1F80000
FC0FC3F00000
FC0FC3F00000
7E1F87E00000
7FFF07E00000
3FFE0FC07F00
07F00FC0FF00
00001F81FF00
00001F81FF00
00003F03FF00
00007E07FF00
00007E07BF00
0000FC0FBF00
0000FC1F3F00
0001F81F3F00
0001F83E3F00
0003F07C3F00
0003F07C3F00
0007E0F83F00
000FC0FFFFC0
000FC0FFFFC0
001F80FFFFC0
001F80FFFFC0
003F00003F00
003F00003F00
007E00003F00
007E00003F00
00FC00003F00
ENDCHAR
STARTCHAR 00BF
ENCODING 191
SWIDTH 534 0
DWIDTH 31 0
BBX 26 41 2 -12
BITMAP
001FC000
001FC000
001FC000
001FC000
001FC000
001FC000
001FC000
00000000
00000000
00000000
00000000
000FC000
000FC000
000FC000
000FC000
000FC000
001FC000
001FC000
007F8000
00FF0000
01FE0000
07F80000
0FF00000
1FE00000
3FC00000
7F800000
7F800000
FF000000
FF000000
FF000400
FF000E00
FF000F80
FF001FC0
7F803FC0
7FE07F80
3FFFFF80
3FFFFF00
1FFFFE00
07FFFC00
01FFF000
007FC000
ENDCHAR
STARTCHAR 00C0
ENCODING 192
SWIDTH 706 0
DWIDTH 41 0
BBX 39 59 1 0
BITMAP
003F800000
003FC00000
001FC00000
000FE00000
0007E00000
0003F00000
0001F00000
0001F80000
0000F80000
00007C0000
00003C0000
0000000000
0000000000
0000000000
0000000000
0000000000
0000000000
0001FF0000
0001FF0000
0003FF8000
0003FF8000
0003FFC000
0007FFC000
0007FFC000
000FFFE000
000FFFE000
000FFFE000
001FEFF000
001FEFF000
001FC7F800
003FC7F800
003FC7F800
007F83FC00
007F83FC00
007F83FC00
00FF01FE00
00FF01FE00
00FF01FF00
01FE00FF00
01FE00FF00
03FE00FF80
03FC007F80
03FC007F80
07FFFFFFC0
07FFFFFFC0
07FFFFFFE0
0FFFFFFFE0
0FFFFFFFE0
1FFFFFFFF0
1FFFFFFFF0
1FE0000FF0
3FE0000FF8
3FC00007F8
3FC00007FC
7FC00007FC
7F800003FC
FF800003FE
FF800001FE
FF000001FE
ENDCHAR
STARTCHAR 00C1
ENCODING 193
SWIDTH 706 0
DWIDTH 41 0
BBX 39 59 1 0
BITMAP
000003F800
000007F800
000007F000
00000FE000
00000FC000
00001F8000
00001F0000
00003F0000
00003E0000
00007C0000
0000780000
0000000000
0000000000
0000000000
0000000000
0000000000
0000000000
0001FF0000
0001FF0000
0003FF8000
0003FF8000
0003FFC000
0007FFC000
0007FFC000
000FFFE000
000FFFE000
000FFFE000
001FEFF000
001FEFF000
001FC7F800
003FC7F800
003FC7F800
007F83FC00
007F83FC00
007F83FC00
00FF01FE00
00FF01FE00
00FF01FF00
01FE00FF00
01FE00FF00
03FE00FF80
03FC007F80
03FC007F80
07FFFFFFC0
07FFFFFFC0
07FFFFFFE0
0FFFFFFFE0
0FFFFFFFE0
1FFFFFFFF0
1FFFFFFFF0
1FE0000FF0
3FE0000FF8
3FC00007F8
3FC00007FC
7FC00007FC
7F800003FC
FF800003FE
FF800001FE
FF000001FE
ENDCHAR
STARTCHAR 00C2
ENCODING 194
SWIDTH 706 0
DWIDTH 41 0
BBX 39 59 1 0
BITMAP
0000FF0000
0001FF0000
0001FF8000
0003FF8000
0003FFC000
0007EFC000
0007C7E000
000F83E000
000F01F000
001F00F000
001E00F800
0000000000
0000000000
0000000000
0000000000
0000000000
0000000000
0001FF0000
0001FF0000
0003FF8000
0003FF8000
0003FFC000
0007FFC000
0007FFC000
000FFFE000
000FFFE000
000FFFE000
001FEFF000
001FEFF000
001FC7F800
003FC7F800
003FC7F800
007F83FC00
007F83FC00
007F83FC00
00FF01FE00
00FF01FE00
00FF01FF00
01FE00FF00
01FE00FF00
03FE00FF80
03FC007F80
03FC007F80
07FFFFFFC0
07FFFFFFC0
07FFFFFFE0
0FFFFFFFE0
0FFFFFFFE0
1FFFFFFFF0
1FFFFFFFF0
1FE0000FF0
3FE0000FF8
3FC00007F8
3FC00007FC
7FC00007FC
7F800003FC
FF800003FE
FF800001FE
FF000001FE
ENDCHAR
STARTCHAR 00C3
ENCODING 195
SWIDTH 706 0
DWIDTH 41 0
BBX 39 56 1 0
BITMAP
0000003800
0003F07800
000FFFF000
001FFFF000
001FFFE000
001C1F8000
0038000000
0000000000
0000000000
0000000000
0000000000
0000000000
0000000000
0001FF0000
0001FF0000
0001FF8000
0003FF8000
0003FF8000
0007FFC000
0007FFC000
0007FFE000
000FFFE000
000FFFE000
000FEFF000
001FEFF000
001FEFF000
003FC7F800
003FC7F800
003FC7F800
007F83FC00
007F83FC00
007F83FE00
00FF01FE00
00FF01FE00
00FF01FF00
01FE00FF00
01FE00FF00
03FC00FF80
03FC007F80
03FC007FC0
07FFFFFFC0
07FFFFFFC0
07FFFFFFE0
0FFFFFFFE0
0FFFFFFFE0
1FFFFFFFF0
1FFFFFFFF0
1FE0000FF0
3FE0000FF8
3FC00007F8
3FC00007FC
7FC00007FC
7F800003FC
FF800003FE
FF800001FE
FF000001FE
ENDCHAR
STARTCHAR 00C4
ENCODING 196
SWIDTH 689 0
DWIDTH 40 0
BBX 40 57 0 0
BITMAP
001F81F800
001F81F800
001F81F800
001F81F800
001F81F800
001F81F800
001F81F800
0000000000
0000000000
0000000000
0000000000
0000000000
0000000000
0000000000
0000000000
0001FF8000
0001FF8000
0001FF8000
0003FFC000
0003FFC000
0003FFE000
0007FFE000
0007FFE000
000FFFF000
000FFFF000
000FF7F000
001FE7F800
001FE7F800
001FC3F800
003FC3FC00
003FC3FC00
003F81FE00
007F81FE00
007F81FE00
00FF00FF00
00FF00FF00
00FF00FF00
01FE00FF80
01FE007F80
01FE007F80
03FC007FC0
03FFFFFFC0
03FFFFFFE0
07FFFFFFE0
07FFFFFFE0
0FFFFFFFF0
0FFFFFFFF0
0FFFFFFFF0
1FF0000FF8
1FE0000FF8
1FE00007F8
3FE00007FC
3FC00003FC
3FC00003FE
7FC00003FE
7F800001FE
FF800001FF
ENDCHAR
STARTCHAR 00C5
ENCODING 197
SWIDTH 724 0
DWIDTH 42 0
BBX 40 62 1 0
BITMAP
00007E0000
0000FF0000
0001FF8000
0003C3C000
000781E000
000700E000
000700E000
000700E000
000700E000
000781E000
0003C3C000
0001FF8000
0000FF0000
00007E0000
0000000000
0000000000
0000000000
0000000000
0000000000
0000000000
0001FF8000
0001FF8000
0003FFC000
0003FFC000
0003FFC000
0007FFE000
0007FFE000
000FFFF000
000FFFF000
000FFFF000
001FF7F800
001FE7F800
001FE7F800
003FC3FC00
003FC3FC00
003FC3FC00
007F81FE00
007F81FE00
00FF81FF00
00FF00FF00
00FF00FF00
01FF00FF80
01FE007F80
01FE007F80
03FC007FC0
03FC003FC0
03FFFFFFC0
07FFFFFFE0
07FFFFFFE0
0FFFFFFFF0
0FFFFFFFF0
0FFFFFFFF0
1FFFFFFFF8
1FE0000FF8
1FE00007F8
3FE00007FC
3FC00003FC
3FC00003FC
7FC00003FE
7F800001FE
FF800001FF
FF800001FF
ENDCHAR
STARTCHAR 00C6
ENCODING 198
SWIDTH 1017 0
DWIDTH 59 0
BBX 55 42 1 0
BITMAP
000003FFFFFFFC
000003FFFFFFFC
000007FFFFFFFC
000007FFFFFFFC
00000FFFFFFFFC
00000FFFFFFFFC
00001FFFC00000
00001FFFC00000
00003FFFC00000
00007FBFC00000
00007F3FC00000
0000FF3FC00000
0000FE3FC00000
0001FE3FC00000
0001FC3FC00000
0003FC3FC00000
0003F83FC00000
0007F83FFFFFF8
0007F03FFFFFF8
000FF03FFFFFF8
000FE03FFFFFF8
001FE03FFFFFF8
003FC03FFFFFF8
003FC03FFFFFF8
007F803FC00000
007FFFFFC00000
00FFFFFFC00000
00FFFFFFC00000
01FFFFFFC00000
01FFFFFFC00000
03FFFFFFC00000
03FFFFFFC00000
07F8003FC00000
0FF8003FC00000
0FF0003FC00000
1FF0003FC00000
1FE0003FFFFFFE
3FE0003FFFFFFE
3FC0003FFFFFFE
7FC0003FFFFFFE
7F80003FFFFFFE
FF00003FFFFFFE
ENDCHAR
STARTCHAR 00C7
ENCODING 199
SWIDTH 724 0
DWIDTH 42 0
BBX 35 57 3 -14
BITMAP
0003FF0000
001FFFE000
007FFFF800
01FFFFFC00
03FFFFFE00
07FFFFFF00
0FFFFFFF80
0FFE03FF80
1FF800FFC0
1FF0007FC0
3FE0003FE0
3FE0003FE0
7FC0003FE0
7FC0001FE0
7FC0000000
7F80000000
FF80000000
FF80000000
FF80000000
FF80000000
FF80000000
FF80000000
FF80000000
FF80000000
FF80000000
FF80000000
FF80000000
FF80000000
7F80000000
7FC0003FE0
7FC0003FE0
7FC0003FE0
3FE0007FE0
3FE0007FE0
3FF000FFC0
1FF801FFC0
0FFE03FF80
0FFFFFFF00
07FFFFFF00
03FFFFFE00
01FFFFF800
007FFFF000
003FFFC000
0007FE0000
0000E00000
0000E00000
0000FC0000
0000FF8000
0000FFC000
00000FE000
000007E000
000003E000
000003E000
000407E000
0007FFC000
0007FF8000
0007FC0000
ENDCHAR
STARTCHAR 00C8
ENCODING 200
SWIDTH 620 0
DWIDTH 36 0
BBX 28 59 4 0
BITMAP
07F00000
07F80000
03F80000
01FC0000
00FC0000
007E0000
003E0000
003F0000
001F0000
000F8000
00078000
00000000
00000000
00000000
00000000
00000000
00000000
FFFFFFF0
FFFFFFF0
FFFFFFF0
FFFFFFF0
FFFFFFF0
FFFFFFF0
FFFFFFF0
FF000000
FF000000
FF000000
FF000000
FF000000
FF000000
FF000000
FF000000
FF000000
FF000000
FFFFFFE0
FFFFFFE0
FFFFFFE0
FFFFFFE0
FFFFFFE0
FFFFFFE0
FF000000
FF000000
FF000000
FF000000
FF000000
FF000000
FF000000
FF000000
FF000000
FF000000
FF000000
FF000000
FFFFFFF0
FFFFFFF0
FFFFFFF0
FFFFFFF0
FFFFFFF0
FFFFFFF0
FFFFFFF0
ENDCHAR
STARTCHAR 00C9
ENCODING 201
SWIDTH 620 0
DWIDTH 36 0
BBX 28 59 4 0
BITMAP
0001FE00
0001FC00
0003F800
0003F000
0007F000
0007E000
000FC000
000F8000
001F0000
001E0000
003C0000
00000000
00000000
00000000
00000000
00000000
00000000
FFFFFFF0
FFFFFFF0
FFFFFFF0
FFFFFFF0
FFFFFFF0
FFFFFFF0
FFFFFFF0
FF000000
FF000000
FF000000
FF000000
FF000000
FF000000
FF000000
FF000000
FF000000
FF000000
FFFFFFE0
FFFFFFE0
FFFFFFE0
FFFFFFE0
FFFFFFE0
FFFFFFE0
FF000000
FF000000
FF000000
FF000000
FF000000
FF000000
FF000000
FF000000
FF000000
FF000000
FF000000
FF000000
FFFFFFF0
FFFFFFF0
FFFFFFF0
FFFFFFF0
FFFFFFF0
FFFFFFF0
FFFFFFF0
ENDCHAR
STARTCHAR 00CA
ENCODING 202
SWIDTH 620 0
DWIDTH 36 0
BBX 28 59 4 0
BITMAP
003FC000
007FC000
007FE000
00FFE000
00FFF000
01F9F000
01F1F800
03E0F800
03E07C00
07C03C00
07801E00
00000000
00000000
00000000
00000000
00000000
00000000
FFFFFFF0
FFFFFFF0
FFFFFFF0
FFFFFFF0
FFFFFFF0
FFFFFFF0
FFFFFFF0
FF000000
FF000000
FF000000
FF000000
FF000000
FF000000
FF000000
FF000000
FF000000
FF000000
FFFFFFE0
FFFFFFE0
FFFFFFE0
FFFFFFE0
FFFFFFE0
FFFFFFE0
FF000000
FF000000
FF000000
FF000000
FF000000
FF000000
FF000000
FF000000
FF000000
FF000000
FF000000
FF000000
FFFFFFF0
FFFFFFF0
FFFFFFF0
FFFFFFF0
FFFFFFF0
FFFFFFF0
FFFFFFF0
ENDCHAR
STARTCHAR 00CB
ENCODING 203
SWIDTH 620 0
DWIDTH 36 0
BBX 28 57 4 0
BITMAP
07E07E00
07E07E00
07E07E00
07E07E00
07E07E00
07E07E00
07E07E00
00000000
00000000
00000000
00000000
00000000
00000000
00000000
00000000
FFFFFFF0
FFFFFFF0
FFFFFFF0
FFFFFFF0
FFFFFFF0
FFFFFFF0
FFFFFFF0
FF000000
FF000000
FF000000
FF000000
FF000000
FF000000
FF000000
FF000000
FF000000
FF000000
FFFFFFE0
FFFFFFE0
FFFFFFE0
FFFFFFE0
FFFFFFE0
FFFFFFE0
FF000000
FF000000
FF000000
FF000000
FF000000
FF000000
FF000000
FF000000
FF000000
FF000000
FF000000
FF000000
FFFFFFF0
FFFFFFF0
FFFFFFF0
FFFFFFF0
FFFFFFF0
FFFFFFF0
FFFFFFF0
ENDCHAR
STARTCHAR 00CC
ENCODING 204
SWIDTH 293 0
DWIDTH 17 0
BBX 15 59 -2 0
BITMAP
FF00
7F00
3F80
1F80
0FC0
0FC0
07E0
03F0
01F0
00F8
0078
0000
0000
0000
0000
0000
0000
03FE
03FE
03FE
03FE
03FE
03FE
03FE
03FE
03FE
03FE
03FE
03FE
03FE
03FE
03FE
03FE
03FE
03FE
03FE
03FE
03FE
03FE
03FE
03FE
03FE
03FE
03FE
03FE
03FE
03FE
03FE
03FE
03FE
03FE
03FE
03FE
03FE
03FE
03FE
03FE
03FE
03FE
ENDCHAR
STARTCHAR 00CD
ENCODING 205
SWIDTH 275 0
DWIDTH 16 0
BBX 14 59 4 0
BITMAP
03FC
03F8
07F0
07E0
0FC0
0FC0
1F80
1F00
3E00
3C00
7800
0000
0000
0000
0000
0000
0000
FF80
FF80
FF80
FF80
FF80
FF80
FF80
FF80
FF80
FF80
FF80
FF80
FF80
FF80
FF80
FF80
FF80
FF80
FF80
FF80
FF80
FF80
FF80
FF80
FF80
FF80
FF80
FF80
FF80
FF80
FF80
FF80
FF80
FF80
FF80
FF80
FF80
FF80
FF80
FF80
FF80
FF80
ENDCHAR
STARTCHAR 00CE
ENCODING 206
SWIDTH 293 0
DWIDTH 17 0
BBX 19 59 -1 0
BITMAP
07FC00
07FC00
0FFE00
0FFE00
1FFF00
1FBF00
3F1F80
3E0F80
7C07C0
7803C0
F803E0
000000
000000
000000
000000
000000
000000
07FC00
07FC00
07FC00
07FC00
07FC00
07FC00
07FC00
07FC00
07FC00
07FC00
07FC00
07FC00
07FC00
07FC00
07FC00
07FC00
07FC00
07FC00
07FC00
07FC00
07FC00
07FC00
07FC00
07FC00
07FC00
07FC00
07FC00
07FC00
07FC00
07FC00
07FC00
07FC00
07FC00
07FC00
07FC00
07FC00
07FC00
07FC00
07FC00
07FC00
07FC00
07FC00
ENDCHAR
STARTCHAR 00CF
ENCODING 207
SWIDTH 275 0
DWIDTH 16 0
BBX 18 57 -1 0
BITMAP
FC0FC0
FC0FC0
FC0FC0
FC0FC0
FC0FC0
FC0FC0
FC0FC0
000000
000000
000000
000000
000000
000000
000000
000000
07FC00
07FC00
07FC00
07FC00
07FC00
07FC00
07FC00
07FC00
07FC00
07FC00
07FC00
07FC00
07FC00
07FC00
07FC00
07FC00
07FC00
07FC00
07FC00
07FC00
07FC00
07FC00
07FC00
07FC00
07FC00
07FC00
07FC00
07FC00
07FC00
07FC00
07FC00
07FC00
07FC00
07FC00
07FC00
07FC00
07FC00
07FC00
07FC00
07FC00
07FC00
07FC00
ENDCHAR
STARTCHAR 00D0
ENCODING 208
SWIDTH 724 0
DWIDTH 42 0
BBX 39 42 0 0
BITMAP
0FFFFC0000
0FFFFFC000
0FFFFFF000
0FFFFFFC00
0FFFFFFF00
0FFFFFFF80
0FFFFFFFC0
0FF807FFE0
0FF800FFF0
0FF8003FF0
0FF8001FF8
0FF8001FF8
0FF8000FFC
0FF80007FC
0FF80007FC
0FF80007FC
0FF80003FE
0FF80003FE
FFFFF803FE
FFFFF803FE
FFFFF803FE
FFFFF803FE
FFFFF803FE
0FF80003FE
0FF80003FE
0FF80003FE
0FF80007FC
0FF80007FC
0FF80007FC
0FF8000FFC
0FF8001FF8
0FF8001FF8
0FF8003FF0
0FF800FFF0
0FF807FFE0
0FFFFFFFC0
0FFFFFFF80
0FFFFFFF00
0FFFFFFC00
0FFFFFF000
0FFFFFC000
0FFFFC0000
ENDCHAR
STARTCHAR 00D1
ENCODING 209
SWIDTH 758 0
DWIDTH 44 0
BBX 36 56 4 0
BITMAP
000000E000
000FC1E000
001FFFE000
003FFFC000
007FFF8000
00783F0000
0070000000
0000000000
0000000000
0000000000
0000000000
0000000000
0000000000
0000000000
FFF0000FF0
FFF8000FF0
FFF8000FF0
FFFC000FF0
FFFC000FF0
FFFE000FF0
FFFE000FF0
FFFF000FF0
FFFF000FF0
FFFF800FF0
FF7F800FF0
FF7F800FF0
FF3FC00FF0
FF3FC00FF0
FF1FE00FF0
FF1FE00FF0
FF0FF00FF0
FF0FF00FF0
FF07F80FF0
FF07F80FF0
FF03FC0FF0
FF03FC0FF0
FF01FE0FF0
FF01FE0FF0
FF00FF0FF0
FF00FF0FF0
FF007F8FF0
FF007F8FF0
FF003FCFF0
FF003FCFF0
FF001FEFF0
FF001FEFF0
FF000FFFF0
FF000FFFF0
FF000FFFF0
FF0007FFF0
FF0007FFF0
FF0003FFF0
FF0003FFF0
FF0001FFF0
FF0001FFF0
FF0000FFF0
ENDCHAR
STARTCHAR 00D2
ENCODING 210
SWIDTH 793 0
DWIDTH 46 0
BBX 40 60 3 -1
BITMAP
007F800000
003F800000
001FC00000
000FC00000
0007E00000
0003E00000
0003F00000
0001F00000
0000F80000
0000780000
00003C0000
0000000000
0000000000
0000000000
0000000000
0000000000
0001FF8000
001FFFF800
007FFFFE00
00FFFFFF00
01FFFFFF80
03FFFFFFC0
07FFFFFFE0
0FFF00FFF0
1FFC003FF8
1FF8001FF8
3FF0000FFC
3FE00007FC
7FE00007FC
7FC00003FE
7FC00003FE
7FC00003FE
FF800003FF
FF800001FF
FF800001FF
FF800001FF
FF800001FF
FF800001FF
FF800001FF
FF800001FF
FF800001FF
FF800001FF
FF800001FF
FF800003FF
7FC00003FE
7FC00003FE
7FC00003FE
7FE00007FE
3FE00007FC
3FF0000FFC
1FF8001FF8
1FFC003FF8
0FFF00FFF0
07FFFFFFE0
03FFFFFFC0
01FFFFFF80
00FFFFFF00
007FFFFE00
001FFFF800
0001FF8000
ENDCHAR
STARTCHAR 00D3
ENCODING 211
SWIDTH 793 0
DWIDTH 46 0
BBX 40 60 3 -1
BITMAP
000001FC00
000003FC00
000003F800
000007F000
000007E000
00000FC000
00000F8000
00001F8000
00001F0000
00003E0000
00003C0000
0000000000
0000000000
0000000000
0000000000
0000000000
0001FF8000
001FFFF800
007FFFFE00
00FFFFFF00
01FFFFFF80
03FFFFFFC0
07FFFFFFE0
0FFF00FFF0
1FFC003FF8
1FF8001FF8
3FF0000FFC
3FE00007FC
7FE00007FC
7FC00003FE
7FC00003FE
7FC00003FE
FF800003FF
FF800001FF
FF800001FF
FF800001FF
FF800001FF
FF800001FF
FF800001FF
FF800001FF
FF800001FF
FF800001FF
FF800001FF
FF800003FF
7FC00003FE
7FC00003FE
7FC00003FE
7FE00007FE
3FE00007FC
3FF0000FFC
1FF8001FF8
1FFC003FF8
0FFF00FFF0
07FFFFFFE0
03FFFFFFC0
01FFFFFF80
00FFFFFF00
007FFFFE00
001FFFF800
0001FF8000
ENDCHAR
STARTCHAR 00D4
ENCODING 212
SWIDTH 793 0
DWIDTH 46 0
BBX 40 60 3 -1
BITMAP
0000FF0000
0001FF8000
0001FF8000
0003FFC000
0003FFC000
0007E7E000
0007C3E000
000FC3F000
000F81F000
001F00F800
001E007800
0000000000
0000000000
0000000000
0000000000
0000000000
0001FF8000
001FFFF800
007FFFFE00
00FFFFFF00
01FFFFFF80
03FFFFFFC0
07FFFFFFE0
0FFF00FFF0
1FFC003FF8
1FF8001FF8
3FF0000FFC
3FE00007FC
7FE00007FC
7FC00003FE
7FC00003FE
7FC00003FE
FF800003FF
FF800001FF
FF800001FF
FF800001FF
FF800001FF
FF800001FF
FF800001FF
FF800001FF
FF800001FF
FF800001FF
FF800001FF
FF800003FF
7FC00003FE
7FC00003FE
7FC00003FE
7FE00007FE
3FE00007FC
3FF0000FFC
1FF8001FF8
1FFC003FF8
0FFF00FFF0
07FFFFFFE0
03FFFFFFC0
01FFFFFF80
00FFFFFF00
007FFFFE00
001FFFF800
0001FF8000
ENDCHAR
STARTCHAR 00D5
ENCODING 213
SWIDTH 793 0
DWIDTH 46 0
BBX 40 57 3 -1
BITMAP
0000003800
0003F07800
0007FFF800
000FFFF000
001FFFE000
001E0FC000
001C000000
0000000000
0000000000
0000000000
0000000000
0000000000
0000000000
0001FF8000
001FFFF800
007FFFFE00
00FFFFFF00
01FFFFFF80
03FFFFFFC0
07FFFFFFE0
0FFF00FFF0
1FFC003FF8
1FF8001FF8
3FF0000FFC
3FE00007FC
7FE00007FC
7FC00003FE
7FC00003FE
7FC00003FE
FF800003FF
FF800001FF
FF800001FF
FF800001FF
FF800001FF
FF800001FF
FF800001FF
FF800001FF
FF800001FF
FF800001FF
FF800001FF
FF800003FF
7FC00003FE
7FC00003FE
7FC00003FE
7FE00007FE
3FE00007FC
3FF0000FFC
1FF8001FF8
1FFC003FF8
0FFF00FFF0
07FFFFFFE0
03FFFFFFC0
01FFFFFF80
00FFFFFF00
007FFFFE00
001FFFF800
0001FF8000
ENDCHAR
STARTCHAR 00D6
ENCODING 214
SWIDTH 793 0
DWIDTH 46 0
BBX 40 57 3 -1
BITMAP
001F81F800
001F81F800
001F81F800
001F81F800
001F81F800
001F81F800
001F81F800
0000000000
0000000000
0000000000
0000000000
0000000000
0000000000
0001FF8000
001FFFF800
007FFFFE00
00FFFFFF00
01FFFFFF80
03FFFFFFC0
07FFFFFFE0
0FFF00FFF0
1FFC003FF8
1FF8001FF8
3FF0000FFC
3FE00007FC
7FE00007FC
7FC00003FE
7FC00003FE
7FC00003FE
FF800003FF
FF800001FF
FF800001FF
FF800001FF
FF800001FF
FF800001FF
FF800001FF
FF800001FF
FF800001FF
FF800001FF
FF800001FF
FF800003FF
7FC00003FE
7FC00003FE
7FC00003FE
7FE00007FE
3FE00007FC
3FF0000FFC
1FF8001FF8
1FFC003FF8
0FFF00FFF0
07FFFFFFE0
03FFFFFFC0
01FFFFFF80
00FFFFFF00
007FFFFE00
001FFFF800
0001FF8000
ENDCHAR
STARTCHAR 00D7
ENCODING 215
SWIDTH 1000 0
DWIDTH 58 0
BBX 30 31 14 2
BITMAP
40000008
E000001C
F000003C
78000078
3C0000F0
1E0001E0
0F0003C0
07800780
03C00F00
01E01E00
00F03C00
00787800
003CF000
001FE000
000FC000
00078000
000FC000
001FE000
003CF000
00787800
00F03C00
01E01E00
03C00F00
07800780
0F0003C0
1E0001E0
3C0000F0
78000078
F000003C
E000001C
40000008
ENDCHAR
STARTCHAR 00D8
ENCODING 216
SWIDTH 793 0
DWIDTH 46 0
BBX 44 48 1 -3
BITMAP
0000000000C0
0000000001E0
00007FE003F0
0007FFFC07F0
001FFFFF07E0
003FFFFFCFC0
007FFFFFFF80
00FFFFFFFF00
01FFFFFFFE00
03FFC07FFC00
07FF000FFC00
07FE0007FE00
0FFC0007FF00
0FF8000FFF00
1FF8000FFF00
1FF0001FFF80
1FF0003FFF80
1FF0007EFF80
3FE000FC7F80
3FE001F87FC0
3FE003F07FC0
3FE007E07FC0
3FE00FE07FC0
3FE01FC07FC0
3FE03F807FC0
3FE07F007FC0
3FE07E007FC0
3FE0FC007FC0
3FE1F8007FC0
3FE3F000FFC0
1FF7E000FF80
1FFFC000FF80
1FFF8000FF80
0FFF0001FF80
0FFF0001FF00
0FFE0003FF00
07FE0007FE00
03FF000FFE00
03FFC03FFC00
07FFFFFFF800
0FFFFFFFF000
1FFFFFFFE000
3F3FFFFFC000
7E0FFFFF8000
FE03FFFE0000
FC007FE00000
780000000000
300000000000
ENDCHAR
STARTCHAR 00D9
ENCODING 217
SWIDTH 758 0
DWIDTH 44 0
BBX 36 60 4 -1
BITMAP
00FE000000
00FE000000
007F000000
003F000000
001F800000
000F800000
000FC00000
0007C00000
0003E00000
0001E00000
0000F00000
0000000000
0000000000
0000000000
0000000000
0000000000
0000000000
FF80001FF0
FF80001FF0
FF80001FF0
FF80001FF0
FF80001FF0
FF80001FF0
FF80001FF0
FF80001FF0
FF80001FF0
FF80001FF0
FF80001FF0
FF80001FF0
FF80001FF0
FF80001FF0
FF80001FF0
FF80001FF0
FF80001FF0
FF80001FF0
FF80001FF0
FF80001FF0
FF80001FF0
FF80001FF0
FF80001FF0
FF80001FF0
FF80001FF0
FF80001FF0
FF80001FF0
FF80001FF0
FF80001FF0
FFC0003FF0
7FC0003FE0
7FC0003FE0
7FE0007FE0
3FE000FFC0
3FF801FFC0
1FFE07FF80
1FFFFFFF00
0FFFFFFF00
07FFFFFE00
03FFFFFC00
01FFFFF000
007FFFC000
0007FE0000
ENDCHAR
STARTCHAR 00DA
ENCODING 218
SWIDTH 758 0
DWIDTH 44 0
BBX 36 60 4 -1
BITMAP
000007F000
00000FE000
00000FE000
00001FC000
00001F8000
00003F0000
00003E0000
00007E0000
00007C0000
0000F80000
0000F00000
0000000000
0000000000
0000000000
0000000000
0000000000
0000000000
FF80001FF0
FF80001FF0
FF80001FF0
FF80001FF0
FF80001FF0
FF80001FF0
FF80001FF0
FF80001FF0
FF80001FF0
FF80001FF0
FF80001FF0
FF80001FF0
FF80001FF0
FF80001FF0
FF80001FF0
FF80001FF0
FF80001FF0
FF80001FF0
FF80001FF0
FF80001FF0
FF80001FF0
FF80001FF0
FF80001FF0
FF80001FF0
FF80001FF0
FF80001FF0
FF80001FF0
FF80001FF0
FF80001FF0
FFC0003FF0
7FC0003FE0
7FC0003FE0
7FE0007FE0
3FE000FFC0
3FF801FFC0
1FFE07FF80
1FFFFFFF00
0FFFFFFF00
07FFFFFE00
03FFFFFC00
01FFFFF000
007FFFC000
0007FE0000
ENDCHAR
STARTCHAR 00DB
ENCODING 219
SWIDTH 758 0
DWIDTH 44 0
BBX 36 60 4 -1
BITMAP
0003FC0000
0007FC0000
0007FE0000
000FFE0000
000FFF0000
001FBF0000
001F1F8000
003E0F8000
003E07C000
007C03C000
007803E000
0000000000
0000000000
0000000000
0000000000
0000000000
0000000000
FF80001FF0
FF80001FF0
FF80001FF0
FF80001FF0
FF80001FF0
FF80001FF0
FF80001FF0
FF80001FF0
FF80001FF0
FF80001FF0
FF80001FF0
FF80001FF0
FF80001FF0
FF80001FF0
FF80001FF0
FF80001FF0
FF80001FF0
FF80001FF0
FF80001FF0
FF80001FF0
FF80001FF0
FF80001FF0
FF80001FF0
FF80001FF0
FF80001FF0
FF80001FF0
FF80001FF0
FF80001FF0
FF80001FF0
FFC0003FF0
7FC0003FE0
7FC0003FE0
7FE0007FE0
3FE000FFC0
3FF801FFC0
1FFE07FF80
1FFFFFFF00
0FFFFFFF00
07FFFFFE00
03FFFFFC00
01FFFFF000
007FFFC000
0007FE0000
ENDCHAR
STARTCHAR 00DC
ENCODING 220
SWIDTH 758 0
DWIDTH 44 0
BBX 36 58 4 -1
BITMAP
007E07E000
007E07E000
007E07E000
007E07E000
007E07E000
007E07E000
007E07E000
0000000000
0000000000
0000000000
0000000000
0000000000
0000000000
0000000000
0000000000
FF80001FF0
FF80001FF0
FF80001FF0
FF80001FF0
FF80001FF0
FF80001FF0
FF80001FF0
FF80001FF0
FF80001FF0
FF80001FF0
FF80001FF0
FF80001FF0
FF80001FF0
FF80001FF0
FF80001FF0
FF80001FF0
FF80001FF0
FF80001FF0
FF80001FF0
FF80001FF0
FF80001FF0
FF80001FF0
FF80001FF0
FF80001FF0
FF80001FF0
FF80001FF0
FF80001FF0
FF80001FF0
FF80001FF0
FFC0003FE0
7FC0003FE0
7FC0003FE0
7FE0007FE0
3FE000FFC0
3FF801FFC0
1FFE07FF80
1FFFFFFF00
0FFFFFFF00
07FFFFFE00
03FFFFFC00
01FFFFF000
007FFFC000
0007FE0000
ENDCHAR
STARTCHAR 00DD
ENCODING 221
SWIDTH 672 0
DWIDTH 39 0
BBX 36 59 1 0
BITMAP
000007F000
00000FE000
00000FC000
00001FC000
00001F8000
00003F0000
00003E0000
00007C0000
0000780000
0000F80000
0000F00000
0000000000
0000000000
0000000000
0000000000
0000000000
0000000000
FFC0001FF0
7FE0003FF0
3FE0003FE0
3FF0007FE0
1FF0007FC0
1FF800FFC0
0FF800FF80
0FFC01FF80
07FC01FF00
07FE03FF00
03FE03FE00
03FF07FE00
01FF07FC00
01FF8FFC00
00FF8FF800
00FFDFF800
007FDFF000
003FFFE000
003FFFE000
001FFFC000
001FFFC000
000FFF8000
000FFF8000
0007FF0000
0007FF0000
0003FE0000
0003FE0000
0003FE0000
0003FE0000
0003FE0000
0003FE0000
0003FE0000
0003FE0000
0003FE0000
0003FE0000
0003FE0000
0003FE0000
0003FE0000
0003FE0000
0003FE0000
0003FE0000
0003FE0000
ENDCHAR
STARTCHAR 00DE
ENCODING 222
SWIDTH 655 0
DWIDTH 38 0
BBX 31 42 3 0
BITMAP
FF800000
FF800000
FF800000
FF800000
FF800000
FF800000
FF800000
FFFFF000
FFFFFE00
FFFFFFC0
FFFFFFE0
FFFFFFF0
FFFFFFF8
FFFFFFF8
FF803FFC
FF800FFC
FF8007FE
FF8003FE
FF8003FE
FF8003FE
FF8003FE
FF8003FE
FF8003FE
FF8007FE
FF800FFC
FF803FFC
FFFFFFFC
FFFFFFF8
FFFFFFF0
FFFFFFE0
FFFFFFC0
FFFFFF00
FFFFF000
FF800000
FF800000
FF800000
FF800000
FF800000
FF800000
FF800000
FF800000
FF800000
ENDCHAR
STARTCHAR 00DF
ENCODING 223
SWIDTH 568 0
DWIDTH 33 0
BBX 30 44 2 -1
BITMAP
007FC000
03FFF800
0FFFFE00
1FFFFF00
3FFFFF80
7FE0FF80
7F807FC0
FF803FC0
FF003FC0
FF003FC0
FF003FC0
FF003FC0
FF007F80
FF00FF80
FF00FF00
FF01FE00
FF03FC00
FF07F800
FF0FF000
FF1FE000
FF1FE000
FF1FE000
FF1FF000
FF1FF800
FF0FFC00
FF0FFF00
FF07FFC0
FF03FFE0
FF00FFF0
FF003FF0
FF001FF8
FF0007F8
FF0007FC
FF0003FC
FF0003FC
FF7F03FC
FF7F03FC
FF7F03FC
FF7F87F8
FF3FFFF8
FF3FFFF0
FF1FFFE0
FF0FFFC0
0001FE00
ENDCHAR
STARTCHAR 00E0
ENCODING 224
SWIDTH 551 0
DWIDTH 32 0
BBX 27 47 3 -1
BITMAP
1FE00000
0FE00000
07F00000
03F00000
01F80000
01F80000
00FC0000
007C0000
003E0000
001E0000
000F0000
00000000
00000000
00000000
00000000
00000000
007FC000
03FFF800
07FFFE00
1FFFFF00
1FFFFF80
3FE0FF80
3FC07F80
7F803FC0
7F803FC0
00003FC0
00003FC0
007FFFC0
03FFFFC0
0FFFFFC0
1FFFFFC0
3FFFFFC0
7FF03FC0
7FC03FC0
FF803FC0
FF003FC0
FF003FC0
FF003FC0
FF007FC0
FF007FC0
FF80FFC0
7FC1FFC0
7FFFFFC0
3FFFDFC0
1FFF9FC0
0FFE1FE0
01F80000
ENDCHAR
STARTCHAR 00E1
ENCODING 225
SWIDTH 551 0
DWIDTH 32 0
BBX 27 47 3 -1
BITMAP
0000FE00
0001FE00
0001FC00
0003F800
0003F000
0007E000
0007C000
000F8000
000F8000
001F0000
001E0000
00000000
00000000
00000000
00000000
00000000
007FC000
03FFF800
07FFFE00
1FFFFF00
1FFFFF80
3FE0FF80
3FC07F80
7F803FC0
7F803FC0
00003FC0
00003FC0
007FFFC0
03FFFFC0
0FFFFFC0
1FFFFFC0
3FFFFFC0
7FF03FC0
7FC03FC0
FF803FC0
FF003FC0
FF003FC0
FF003FC0
FF007FC0
FF007FC0
FF80FFC0
7FC1FFC0
7FFFFFC0
3FFFDFC0
1FFF9FC0
0FFE1FE0
01F80000
ENDCHAR
STARTCHAR 00E2
ENCODING 226
SWIDTH 551 0
DWIDTH 32 0
BBX 27 47 3 -1
BITMAP
007F8000
007FC000
00FFC000
00FFE000
01FFE000
01FBF000
03F1F000
03E0F800
07C07800
07807C00
0F803C00
00000000
00000000
00000000
00000000
00000000
007FC000
03FFF800
07FFFE00
1FFFFF00
1FFFFF80
3FE0FF80
3FC07F80
7F803FC0
7F803FC0
00003FC0
00003FC0
007FFFC0
03FFFFC0
0FFFFFC0
1FFFFFC0
3FFFFFC0
7FF03FC0
7FC03FC0
FF803FC0
FF003FC0
FF003FC0
FF003FC0
FF007FC0
FF007FC0
FF80FFC0
7FC1FFC0
7FFFFFC0
3FFFDFC0
1FFF9FC0
0FFE1FE0
01F80000
ENDCHAR
STARTCHAR 00E3
ENCODING 227
SWIDTH 551 0
DWIDTH 32 0
BBX 27 44 3 -1
BITMAP
00001E00
01F81C00
03FFFC00
07FFF800
07FFF800
0F07E000
0E000000
00000000
00000000
00000000
00000000
00000000
00000000
007FC000
03FFF800
07FFFE00
1FFFFF00
1FFFFF80
3FE0FF80
3FC07F80
7F803FC0
7F803FC0
00003FC0
00003FC0
007FFFC0
03FFFFC0
0FFFFFC0
1FFFFFC0
3FFFFFC0
7FF03FC0
7FC03FC0
FF803FC0
FF003FC0
FF003FC0
FF003FC0
FF007FC0
FF007FC0
FF80FFC0
7FC1FFC0
7FFFFFC0
3FFFDFC0
1FFF9FC0
0FFE1FE0
01F80000
ENDCHAR
STARTCHAR 00E4
ENCODING 228
SWIDTH 568 0
DWIDTH 33 0
BBX 27 45 3 -1
BITMAP
0FC0FC00
0FC0FC00
0FC0FC00
0FC0FC00
0FC0FC00
0FC0FC00
0FC0FC00
00000000
00000000
00000000
00000000
00000000
00000000
00000000
007FC000
03FFF800
07FFFE00
1FFFFF00
1FFFFF80
3FE0FF80
3F807F80
7F803FC0
7F803FC0
00003FC0
00003FC0
007FFFC0
03FFFFC0
0FFFFFC0
1FFFFFC0
3FFFFFC0
7FF03FC0
7FC03FC0
FF803FC0
FF003FC0
FF003FC0
FF003FC0
FF007FC0
FF007FC0
FF80FFC0
7FC1FFC0
7FFFFFC0
3FFFDFC0
1FFF9FC0
0FFE1FE0
01F80000
ENDCHAR
STARTCHAR 00E5
ENCODING 229
SWIDTH 551 0
DWIDTH 32 0
BBX 27 50 3 -1
BITMAP
001F8000
003FC000
007FE000
00F1F000
01E0F800
01C07800
01C07800
01C07800
01E0F800
01F1F800
00FFF000
007FE000
003FC000
001F8000
00000000
00000000
00000000
00000000
00000000
007FC000
03FFF800
07FFFE00
1FFFFF00
1FFFFF80
3FE0FF80
3FC07F80
7F803FC0
7F803FC0
00003FC0
00003FC0
007FFFC0
03FFFFC0
0FFFFFC0
1FFFFFC0
3FFFFFC0
7FF03FC0
7FC03FC0
FF803FC0
FF003FC0
FF003FC0
FF003FC0
FF007FC0
FF007FC0
FF80FFC0
7FC1FFC0
7FFFFFC0
3FFFDFC0
1FFF9FC0
0FFF0FE0
01F80000
ENDCHAR
STARTCHAR 00E6
ENCODING 230
SWIDTH 896 0
DWIDTH 52 0
BBX 46 31 3 -1
BITMAP
003FC007F800
01FFF01FFF00
07FFF83FFF80
0FFFFC7FFFC0
1FFFFEFFFFE0
3FE07FFC1FF0
3FC03FF80FF0
7F801FF007F8
7F801FF003F8
00001FE003F8
00001FE003FC
00001FE003FC
007FFFFFFFFC
03FFFFFFFFFC
0FFFFFFFFFFC
1FFFFFFFFFFC
3FE01FE00000
7F801FE00000
7F801FE00000
FF001FE00000
FF001FF00000
FF001FF003F8
FF003FF003F8
FF003FF807F8
FF807FFC0FF8
7FE0FCFE1FF0
7FFFF8FFFFF0
3FFFF07FFFE0
1FFFE03FFFC0
07FF800FFF00
01FC0003F800
ENDCHAR
STARTCHAR 00E7
ENCODING 231
SWIDTH 517 0
DWIDTH 30 0
BBX 25 44 3 -14
BITMAP
007FC000
03FFF000
07FFFC00
0FFFFE00
1FFFFE00
3FE1FF00
3FC0FF00
7F80FF00
7F807F80
7F007F80
FF007F80
FF000000
FF000000
FF000000
FF000000
FF000000
FF000000
FF000000
FF000000
FF007F80
FF007F80
7F007F80
7F007F80
7F80FF00
7F80FF00
3FE1FF00
1FFFFE00
1FFFFC00
0FFFFC00
03FFF000
00FF8000
00380000
00380000
003E0000
003FC000
003FE000
0003F000
0001F800
0000F800
0000F800
0101F800
01FFF000
01FFE000
01FF0000
ENDCHAR
STARTCHAR 00E8
ENCODING 232
SWIDTH 568 0
DWIDTH 33 0
BBX 27 47 3 -1
BITMAP
1FE00000
0FE00000
07F00000
03F00000
01F80000
01F80000
00FC0000
007C0000
003E0000
001E0000
000F0000
00000000
00000000
00000000
00000000
00000000
003FC000
01FFF000
03FFFC00
0FFFFE00
1FFFFF00
1FE0FF80
3F807F80
7F803FC0
7F003FC0
7F003FC0
7F003FE0
FF003FE0
FFFFFFE0
FFFFFFE0
FFFFFFE0
FFFFFFE0
FFFFFFE0
FF000000
FF000000
FF000000
FF000000
7F003FC0
7F803FC0
7F803FC0
3FC07FC0
3FE0FF80
1FFFFF80
0FFFFF00
07FFFE00
03FFF800
007FC000
ENDCHAR
STARTCHAR 00E9
ENCODING 233
SWIDTH 568 0
DWIDTH 33 0
BBX 27 47 3 -1
BITMAP
0000FE00
0001FE00
0001FC00
0003F800
0003F000
0007E000
0007C000
000F8000
000F8000
001F0000
001E0000
00000000
00000000
00000000
00000000
00000000
003FC000
01FFF000
03FFFC00
0FFFFE00
1FFFFF00
1FE0FF80
3F807F80
7F803FC0
7F003FC0
7F003FC0
7F003FE0
FF003FE0
FFFFFFE0
FFFFFFE0
FFFFFFE0
FFFFFFE0
FFFFFFE0
FF000000
FF000000
FF000000
FF000000
7F003FC0
7F803FC0
7F803FC0
3FC07FC0
3FE0FF80
1FFFFF80
0FFFFF00
07FFFE00
03FFF800
007FC000
ENDCHAR
STARTCHAR 00EA
ENCODING 234
SWIDTH 568 0
DWIDTH 33 0
BBX 27 47 3 -1
BITMAP
007F8000
007FC000
00FFC000
00FFE000
01FFE000
01FBF000
03F1F000
03E0F800
07C0F800
07807C00
0F003C00
00000000
00000000
00000000
00000000
00000000
003FC000
01FFF000
03FFFC00
0FFFFE00
1FFFFF00
1FE0FF80
3F807F80
7F803FC0
7F003FC0
7F003FC0
7F003FE0
FF003FE0
FFFFFFE0
FFFFFFE0
FFFFFFE0
FFFFFFE0
FFFFFFE0
FF000000
FF000000
FF000000
FF000000
7F003FC0
7F803FC0
7F803FC0
3FC07FC0
3FE0FF80
1FFFFF80
0FFFFF00
07FFFE00
03FFF800
007FC000
ENDCHAR
STARTCHAR 00EB
ENCODING 235
SWIDTH 568 0
DWIDTH 33 0
BBX 27 45 3 -1
BITMAP
0FC07E00
0FC07E00
0FC07E00
0FC07E00
0FC07E00
0FC07E00
0FC07E00
00000000
00000000
00000000
00000000
00000000
00000000
00000000
003FC000
01FFF000
03FFFC00
0FFFFE00
1FFFFF00
1FE0FF80
3FC07F80
7F803FC0
7F001FC0
7F001FC0
7F001FE0
FF001FE0
FFFFFFE0
FFFFFFE0
FFFFFFE0
FFFFFFE0
FFFFFFE0
FF000000
FF000000
FF000000
FF000000
7F001FC0
7F801FC0
7F803FC0
3FC07FC0
3FE0FF80
1FFFFF80
0FFFFF00
07FFFE00
03FFF800
007FC000
ENDCHAR
STARTCHAR 00EC
ENCODING 236
SWIDTH 275 0
DWIDTH 16 0
BBX 13 46 -1 0
BITMAP
FE00
7F00
7F00
3F80
1F80
0FC0
07C0
03E0
03E0
01F0
00F0
0000
0000
0000
0000
0000
0000
07F8
07F8
07F8
07F8
07F8
07F8
07F8
07F8
07F8
07F8
07F8
07F8
07F8
07F8
07F8
07F8
07F8
07F8
07F8
07F8
07F8
07F8
07F8
07F8
07F8
07F8
07F8
07F8
07F8
ENDCHAR
STARTCHAR 00ED
ENCODING 237
SWIDTH 241 0
DWIDTH 14 0
BBX 13 46 3 0
BITMAP
07F8
07F0
0FE0
0FE0
1FC0
1F80
3F00
3E00
7C00
7C00
F800
0000
0000
0000
0000
0000
0000
7F80
7F80
7F80
7F80
7F80
7F80
7F80
7F80
7F80
7F80
7F80
7F80
7F80
7F80
7F80
7F80
7F80
7F80
7F80
7F80
7F80
7F80
7F80
7F80
7F80
7F80
7F80
7F80
7F80
ENDCHAR
STARTCHAR 00EE
ENCODING 238
SWIDTH 275 0
DWIDTH 16 0
BBX 18 46 -1 0
BITMAP
07F800
0FF800
0FFC00
1FFC00
1FFE00
3F3E00
3E3F00
7E1F00
7C0F80
F80780
F003C0
000000
000000
000000
000000
000000
000000
07F800
07F800
07F800
07F800
07F800
07F800
07F800
07F800
07F800
07F800
07F800
07F800
07F800
07F800
07F800
07F800
07F800
07F800
07F800
07F800
07F800
07F800
07F800
07F800
07F800
07F800
07F800
07F800
07F800
ENDCHAR
STARTCHAR 00EF
ENCODING 239
SWIDTH 258 0
DWIDTH 15 0
BBX 18 44 -2 0
BITMAP
FC0FC0
FC0FC0
FC0FC0
FC0FC0
FC0FC0
FC0FC0
FC0FC0
000000
000000
000000
000000
000000
000000
000000
000000
07F800
07F800
07F800
07F800
07F800
07F800
07F800
07F800
07F800
07F800
07F800
07F800
07F800
07F800
07F800
07F800
07F800
07F800
07F800
07F800
07F800
07F800
07F800
07F800
07F800
07F800
07F800
07F800
07F800
ENDCHAR
STARTCHAR 00F0
ENCODING 240
SWIDTH 603 0
DWIDTH 35 0
BBX 30 45 3 -1
BITMAP
00000020
007800E0
01FE03F0
00FF8FF0
003FFFC0
001FFF00
0007F800
001FF800
007FFC00
01FEFE00
0FF8FF00
0FE07F00
0F003F80
04003FC0
003FFFC0
00FFFFE0
03FFFFE0
07FFFFF0
0FFFFFF0
1FF03FF0
3FE01FF8
3FC00FF8
7F8007F8
7F8007F8
7F8007F8
FF0003FC
FF0003FC
FF0003FC
FF0003FC
FF0003FC
FF0003FC
FF0003FC
FF0003FC
FF0003FC
7F0007F8
7F8007F8
7F8007F8
3FC00FF0
3FE01FF0
1FF03FE0
0FFFFFE0
07FFFFC0
03FFFF00
00FFFE00
001FF000
ENDCHAR
STARTCHAR 00F1
ENCODING 241
SWIDTH 603 0
DWIDTH 35 0
BBX 27 43 4 0
BITMAP
00000E00
00F81C00
03FFFC00
07FFF800
07FFF800
0F07E000
0E000000
00000000
00000000
00000000
00000000
00000000
00000000
0007F800
FF1FFE00
FF3FFF00
FF7FFF80
FFFFFFC0
FFF0FFC0
FFC07FE0
FF803FE0
FF801FE0
FF001FE0
FF001FE0
FF001FE0
FF001FE0
FF001FE0
FF001FE0
FF001FE0
FF001FE0
FF001FE0
FF001FE0
FF001FE0
FF001FE0
FF001FE0
FF001FE0
FF001FE0
FF001FE0
FF001FE0
FF001FE0
FF001FE0
FF001FE0
FF001FE0
ENDCHAR
STARTCHAR 00F2
ENCODING 242
SWIDTH 603 0
DWIDTH 35 0
BBX 30 47 3 -1
BITMAP
07F00000
03F80000
01F80000
01FC0000
00FC0000
007E0000
003E0000
001F0000
000F0000
000F8000
00078000
00000000
00000000
00000000
00000000
00000000
001FE000
00FFFC00
03FFFE00
07FFFF80
0FFFFFC0
1FF07FE0
3FE01FE0
3FC00FF0
7F8007F0
7F8007F8
7F0007F8
FF0003F8
FF0003FC
FF0003FC
FF0003FC
FF0003FC
FF0003FC
FF0003FC
FF0003FC
FF0003F8
7F0007F8
7F8007F8
7F8007F0
3FC00FF0
3FE01FE0
1FF03FE0
0FFFFFC0
07FFFF80
03FFFE00
00FFFC00
001FE000
ENDCHAR
STARTCHAR 00F3
ENCODING 243
SWIDTH 603 0
DWIDTH 35 0
BBX 30 47 3 -1
BITMAP
00007F80
00007F00
0000FE00
0000FC00
0001FC00
0001F800
0003F000
0003E000
0007C000
00078000
000F8000
00000000
00000000
00000000
00000000
00000000
001FE000
00FFFC00
03FFFE00
07FFFF80
0FFFFFC0
1FF07FE0
3FE01FE0
3FC00FF0
7F8007F0
7F8007F8
7F0007F8
FF0003F8
FF0003FC
FF0003FC
FF0003FC
FF0003FC
FF0003FC
FF0003FC
FF0003FC
FF0003F8
7F0007F8
7F8007F8
7F8007F0
3FC00FF0
3FE01FE0
1FF03FE0
0FFFFFC0
07FFFF80
03FFFE00
00FFFC00
001FE000
ENDCHAR
STARTCHAR 00F4
ENCODING 244
SWIDTH 603 0
DWIDTH 35 0
BBX 30 47 3 -1
BITMAP
001FE000
003FF000
003FF000
007FF800
007FF800
00FCFC00
00F87C00
01F87E00
01F03E00
03E01F00
03C00F00
00000000
00000000
00000000
00000000
00000000
001FE000
00FFFC00
03FFFE00
07FFFF80
0FFFFFC0
1FF07FE0
3FE01FE0
3FC00FF0
7F8007F0
7F8007F8
7F0007F8
FF0003F8
FF0003FC
FF0003FC
FF0003FC
FF0003FC
FF0003FC
FF0003FC
FF0003FC
FF0003F8
7F0007F8
7F8007F8
7F8007F0
3FC00FF0
3FE01FE0
1FF03FE0
0FFFFFC0
07FFFF80
03FFFE00
00FFFC00
001FE000
ENDCHAR
STARTCHAR 00F5
ENCODING 245
SWIDTH 603 0
DWIDTH 35 0
BBX 30 44 3 -1
BITMAP
00000700
007E0F00
00FFFF00
01FFFE00
03FFFC00
03C1F800
03800000
00000000
00000000
00000000
00000000
00000000
00000000
001FE000
00FFFC00
03FFFE00
07FFFF80
0FFFFFC0
1FF07FE0
3FE01FE0
3FC00FF0
7F8007F0
7F8007F8
7F0007F8
FF0003F8
FF0003FC
FF0003FC
FF0003FC
FF0003FC
FF0003FC
FF0003FC
FF0003FC
FF0003F8
7F0007F8
7F8007F8
7F8007F0
3FC00FF0
3FE01FE0
1FF03FE0
0FFFFFC0
07FFFF80
03FFFE00
00FFFC00
001FE000
ENDCHAR
STARTCHAR 00F6
ENCODING 246
SWIDTH 603 0
DWIDTH 35 0
BBX 30 45 3 -1
BITMAP
03F03F00
03F03F00
03F03F00
03F03F00
03F03F00
03F03F00
03F03F00
00000000
00000000
00000000
00000000
00000000
00000000
00000000
001FE000
00FFFC00
03FFFE00
07FFFF80
0FFFFFC0
1FF07FE0
3FE01FE0
3FC00FF0
7F8007F0
7F8007F8
7F0007F8
FF0003F8
FF0003FC
FF0003FC
FF0003FC
FF0003FC
FF0003FC
FF0003FC
FF0003FC
FF0003F8
7F0007F8
7F8007F8
7F8007F0
3FC00FF0
3FE01FE0
1FF03FE0
0FFFFFC0
07FFFF80
03FFFE00
00FFFC00
001FE000
ENDCHAR
STARTCHAR 00F7
ENCODING 247
SWIDTH 1017 0
DWIDTH 59 0
BBX 35 26 12 5
BITMAP
0000E00000
0001F00000
0003F80000
0003F80000
0003F80000
0001F00000
0000E00000
0000000000
0000000000
0000000000
0000000000
FFFFFFFFE0
FFFFFFFFE0
FFFFFFFFE0
FFFFFFFFE0
0000000000
0000000000
0000000000
0000000000
0000E00000
0001F00000
0003F80000
0003F80000
0003F80000
0001F00000
0000E00000
ENDCHAR
STARTCHAR 00F8
ENCODING 248
SWIDTH 603 0
DWIDTH 35 0
BBX 31 39 2 -4
BITMAP
00000038
0000003C
0000007C
000000F8
000FF0F8
007FFFF0
01FFFFE0
03FFFFE0
07FFFFE0
0FF81FF0
1FF01FF0
1FE03FF8
3FC03FF8
3FC07FFC
3F80FBFC
7F80F9FC
7F81F1FE
7F83E1FE
7F87E1FE
7F87C1FE
7F8F81FE
7F9F01FE
7FBF01FE
7FBE01FC
3FFC03FC
3FF803FC
3FF803F8
1FF007F8
1FF00FF0
0FF81FF0
0FFFFFE0
0FFFFFC0
1FFFFF80
3E7FFE00
7E0FF000
7C000000
F8000000
70000000
30000000
ENDCHAR
STARTCHAR 00F9
ENCODING 249
SWIDTH 603 0
DWIDTH 35 0
BBX 27 47 4 -1
BITMAP
1FE00000
0FE00000
07F00000
03F00000
01F80000
00F80000
00FC0000
007C0000
003E0000
001E0000
000F0000
00000000
00000000
00000000
00000000
00000000
00000000
FF001FE0
FF001FE0
FF001FE0
FF001FE0
FF001FE0
FF001FE0
FF001FE0
FF001FE0
FF001FE0
FF001FE0
FF001FE0
FF001FE0
FF001FE0
FF001FE0
FF001FE0
FF001FE0
FF001FE0
FF001FE0
FF001FE0
FF001FE0
FF001FE0
FF003FE0
FF803FE0
FF807FE0
7FE1FFE0
7FFFFFE0
3FFFDFE0
1FFF9FE0
0FFF1FE0
03FC0000
ENDCHAR
STARTCHAR 00FA
ENCODING 250
SWIDTH 603 0
DWIDTH 35 0
BBX 27 47 4 -1
BITMAP
0001FE00
0001FC00
0003F800
0003F000
0007F000
0007E000
000FC000
000F8000
001F0000
001E0000
003E0000
00000000
00000000
00000000
00000000
00000000
00000000
FF001FE0
FF001FE0
FF001FE0
FF001FE0
FF001FE0
FF001FE0
FF001FE0
FF001FE0
FF001FE0
FF001FE0
FF001FE0
FF001FE0
FF001FE0
FF001FE0
FF001FE0
FF001FE0
FF001FE0
FF001FE0
FF001FE0
FF001FE0
FF001FE0
FF003FE0
FF803FE0
FF807FE0
7FE1FFE0
7FFFFFE0
3FFFDFE0
1FFF9FE0
0FFF1FE0
03FC0000
ENDCHAR
STARTCHAR 00FB
ENCODING 251
SWIDTH 603 0
DWIDTH 35 0
BBX 27 47 4 -1
BITMAP
007FC000
007FC000
00FFC000
00FFE000
01FFE000
01FBF000
03F1F000
03E0F800
07C07800
07C07C00
0F803C00
00000000
00000000
00000000
00000000
00000000
00000000
FF001FE0
FF001FE0
FF001FE0
FF001FE0
FF001FE0
FF001FE0
FF001FE0
FF001FE0
FF001FE0
FF001FE0
FF001FE0
FF001FE0
FF001FE0
FF001FE0
FF001FE0
FF001FE0
FF001FE0
FF001FE0
FF001FE0
FF001FE0
FF001FE0
FF003FE0
FF803FE0
FF807FE0
7FE1FFE0
7FFFFFE0
3FFFDFE0
1FFF9FE0
0FFF1FE0
03FC0000
ENDCHAR
STARTCHAR 00FC
ENCODING 252
SWIDTH 603 0
DWIDTH 35 0
BBX 27 45 4 -1
BITMAP
0FC07E00
0FC07E00
0FC07E00
0FC07E00
0FC07E00
0FC07E00
0FC07E00
00000000
00000000
00000000
00000000
00000000
00000000
00000000
00000000
FF001FE0
FF001FE0
FF001FE0
FF001FE0
FF001FE0
FF001FE0
FF001FE0
FF001FE0
FF001FE0
FF001FE0
FF001FE0
FF001FE0
FF001FE0
FF001FE0
FF001FE0
FF001FE0
FF001FE0
FF001FE0
FF001FE0
FF001FE0
FF001FE0
FF003FE0
FF803FE0
FF807FE0
7FE1FFE0
7FFFFFE0
3FFFDFE0
1FFF9FE0
0FFF1FE0
03FC0000
ENDCHAR
STARTCHAR 00FD
ENCODING 253
SWIDTH 551 0
DWIDTH 32 0
BBX 30 58 1 -12
BITMAP
00001FC0
00003FC0
00003F80
00007F00
00007E00
0000FC00
0000F800
0001F800
0001F000
0003E000
0003C000
00000000
00000000
00000000
00000000
00000000
00000000
FF8003FC
7FC003FC
7FC007FC
3FC007F8
3FE007F8
3FE00FF8
1FE00FF0
1FF00FF0
1FF01FE0
0FF01FE0
0FF81FE0
07F83FC0
07FC3FC0
07FC3FC0
03FC7F80
03FE7F80
01FE7F80
01FEFF00
01FFFF00
00FFFF00
00FFFE00
007FFE00
007FFE00
007FFC00
003FFC00
003FF800
001FF800
001FF800
001FF000
000FF000
001FF000
001FE000
081FE000
183FE000
3C7FC000
FFFFC000
FFFF8000
FFFF8000
7FFF0000
1FFE0000
07F00000
ENDCHAR
STARTCHAR 00FE
ENCODING 254
SWIDTH 620 0
DWIDTH 36 0
BBX 29 54 4 -12
BITMAP
FF000000
FF000000
FF000000
FF000000
FF000000
FF000000
FF000000
FF000000
FF000000
FF000000
FF000000
FF000000
FF000000
FF0FF000
FF3FFC00
FF7FFF00
FFFFFF80
FFFFFFC0
FFF07FC0
FFE03FE0
FFC01FF0
FF800FF0
FF800FF0
FF0007F8
FF0007F8
FF0007F8
FF0007F8
FF0007F8
FF0007F8
FF0007F8
FF0007F8
FF0007F8
FF000FF8
FF800FF0
FF800FF0
FFC01FF0
FFC03FE0
FFF07FE0
FFFFFFC0
FFFFFF80
FF7FFF00
FF3FFE00
FF1FF000
FF000000
FF000000
FF000000
FF000000
FF000000
FF000000
FF000000
FF000000
FF000000
FF000000
FF000000
ENDCHAR
STARTCHAR 00FF
ENCODING 255
SWIDTH 534 0
DWIDTH 31 0
BBX 30 55 1 -12
BITMAP
03F03F00
03F03F00
03F03F00
03F03F00
03F03F00
03F03F00
03F03F00
00000000
00000000
00000000
00000000
00000000
00000000
00000000
FF8003FC
7F8007F8
7FC007F8
7FC007F8
3FC00FF0
3FE00FF0
1FE00FF0
1FE01FE0
1FF01FE0
0FF01FE0
0FF83FC0
07F83FC0
07F83FC0
07FC7F80
03FC7F80
03FC7F80
01FEFF00
01FEFF00
01FEFE00
00FFFE00
00FFFE00
00FFFC00
007FFC00
007FFC00
003FF800
003FF800
003FF800
001FF000
001FF000
000FF000
001FE000
001FE000
001FE000
003FC000
003FC000
007FC000
007F8000
007F8000
00FF8000
00FF0000
01FF0000
ENDCHAR
STARTCHAR 0131
ENCODING 305
SWIDTH 275 0
DWIDTH 16 0
BBX 8 29 4 0
BITMAP
FF
FF
FF
FF
FF
FF
FF
FF
FF
FF
FF
FF
FF
FF
FF
FF
FF
FF
FF
FF
FF
FF
FF
FF
FF
FF
FF
FF
FF
ENDCHAR
STARTCHAR 0141
ENCODING 321
SWIDTH 655 0
DWIDTH 38 0
BBX 33 42 2 0
BITMAP
07FC000000
07FC000000
07FC000000
07FC000000
07FC000000
07FC100000
07FC100000
07FC300000
07FC700000
07FCF00000
07FDF00000
07FFF00000
07FFF00000
07FFE00000
07FFC00000
07FF800000
07FF000000
07FE000000
07FC000000
07FC000000
0FFC000000
1FFC000000
3FFC000000
7FFC000000
FFFC000000
FFFC000000
FFFC000000
FFFC000000
F7FC000000
E7FC000000
87FC000000
07FC000000
07FC000000
07FC000000
07FC000000
07FFFFFF80
07FFFFFF80
07FFFFFF80
07FFFFFF80
07FFFFFF80
07FFFFFF80
07FFFFFF80
ENDCHAR
STARTCHAR 0142
ENCODING 322
SWIDTH 362 0
DWIDTH 21 0
BBX 18 42 2 0
BITMAP
07F800
07F800
07F800
07F800
07F800
07F800
07F800
07F800
07F840
07F8C0
07F9C0
07FBC0
07FFC0
07FFC0
07FFC0
07FF80
07FF80
07FF00
07FE00
0FFC00
1FF800
3FF800
7FF800
FFF800
FFF800
FFF800
F7F800
E7F800
C7F800
87F800
07F800
07F800
07F800
07F800
07F800
07F800
07F800
07F800
07F800
07F800
07F800
07F800
ENDCHAR
STARTCHAR 0152
ENCODING 338
SWIDTH 1017 0
DWIDTH 59 0
BBX 53 44 3 -1
BITMAP
0001FF00000000
001FFFFFFFFFF8
007FFFFFFFFFF8
00FFFFFFFFFFF8
01FFFFFFFFFFF8
03FFFFFFFFFFF8
07FFFFFFFFFFF8
0FFF01FFFFFFF8
1FFC007F800000
1FF8007F800000
3FF0007F800000
3FE0007F800000
7FE0007F800000
7FC0007F800000
7FC0007F800000
7FC0007F800000
FF80007F800000
FF80007F800000
FF80007FFFFFF0
FF80007FFFFFF0
FF80007FFFFFF0
FF80007FFFFFF0
FF80007FFFFFF0
FF80007FFFFFF0
FF80007F800000
FF80007F800000
FF80007F800000
FF80007F800000
7FC0007F800000
7FC0007F800000
7FC0007F800000
7FE0007F800000
3FE0007F800000
3FF0007F800000
1FF8007F800000
1FFC007F800000
0FFF01FFFFFFF8
07FFFFFFFFFFF8
03FFFFFFFFFFF8
01FFFFFFFFFFF8
00FFFFFFFFFFF8
007FFFFFFFFFF8
001FFFFFFFFFF8
0001FF00000000
ENDCHAR
STARTCHAR 0153
ENCODING 339
SWIDTH 913 0
DWIDTH 53 0
BBX 48 31 3 -1
BITMAP
001FC003FE00
00FFF81FFF80
03FFFC3FFFE0
07FFFFFFFFF0
0FFFFFFFFFF8
1FF07FFF07F8
3FE01FFC03FC
3FC01FF801FC
7F800FF800FE
7F800FF000FE
7F000FF000FE
FF0007F000FF
FF0007FFFFFF
FF0007FFFFFF
FF0007FFFFFF
FF0007FFFFFF
FF0007FFFFFF
FF0007F00000
FF0007F00000
FF0007F00000
7F000FF00000
7F800FF800FF
7F800FF800FF
3FC01FF801FE
3FE01FFC01FE
1FF07FFF07FC
0FFFFFFFFFFC
07FFFFFFFFF8
03FFFE7FFFF0
00FFF81FFFC0
001FE007FE00
ENDCHAR
STARTCHAR 0160
ENCODING 352
SWIDTH 672 0
DWIDTH 39 0
BBX 33 59 3 -1
BITMAP
00E007C000
00F00F8000
00781F8000
007C3F0000
007E3F0000
003E7E0000
003FFC0000
001FFC0000
001FF80000
000FF80000
0000000000
0000000000
0000000000
0000000000
0000000000
000FFC0000
007FFF8000
01FFFFE000
03FFFFF000
07FFFFF800
0FFFFFFC00
1FF81FFC00
3FE007FE00
3FC003FE00
7F8003FF00
7F8001FF00
7F8001FF00
7F8001FF00
7F80000000
7FC0000000
7FE0000000
3FF8000000
3FFF000000
1FFFE00000
1FFFFE0000
0FFFFFC000
03FFFFF000
00FFFFF800
003FFFFC00
0003FFFE00
00007FFF00
000007FF00
000001FF80
000000FF80
0000007F80
FF80007F80
FF80007F80
FF80007F80
FFC0007F80
7FC000FF00
7FE001FF00
7FF80FFF00
3FFFFFFE00
1FFFFFFC00
0FFFFFF800
07FFFFF000
03FFFFC000
00FFFF0000
000FF80000
ENDCHAR
STARTCHAR 0161
ENCODING 353
SWIDTH 534 0
DWIDTH 31 0
BBX 25 46 3 -1
BITMAP
0F007800
0F80F800
0781F000
07C1F000
03E3E000
03F7E000
01FFC000
00FFC000
00FF8000
007F8000
00000000
00000000
00000000
00000000
00000000
00FF8000
03FFF000
0FFFF800
1FFFFC00
3FFFFE00
3FC3FE00
7F81FF00
7F80FF00
7F80FF00
7F80FF00
7FC00000
7FF80000
3FFF8000
3FFFF000
1FFFFC00
07FFFE00
01FFFF00
003FFF00
0003FF80
0000FF80
00007F80
FF007F80
FF007F80
FF007F80
FF80FF00
7FC1FF00
7FFFFE00
3FFFFE00
1FFFF800
07FFF000
01FF8000
ENDCHAR
STARTCHAR 0178
ENCODING 376
SWIDTH 655 0
DWIDTH 38 0
BBX 36 56 1 1
BITMAP
007E07E000
007E07E000
007E07E000
007E07E000
007E07E000
007E07E000
007E07E000
0000000000
0000000000
0000000000
0000000000
0000000000
0000000000
0000000000
FFC0001FF0
FFC0003FF0
7FC0003FE0
3FE0007FE0
3FE0007FC0
1FF000FFC0
1FF000FF80
0FF801FF80
0FF801FF00
07FC03FF00
07FC03FE00
03FE07FE00
03FE07FC00
01FF0FFC00
01FF0FF800
00FF9FF800
007F9FF000
007FFFF000
003FFFE000
003FFFE000
001FFFC000
001FFFC000
000FFF8000
000FFF8000
0007FF0000
0007FF0000
0003FE0000
0003FE0000
0003FE0000
0003FE0000
0003FE0000
0003FE0000
0003FE0000
0003FE0000
0003FE0000
0003FE0000
0003FE0000
0003FE0000
0003FE0000
0003FE0000
0003FE0000
0003FE0000
ENDCHAR
STARTCHAR 017D
ENCODING 381
SWIDTH 637 0
DWIDTH 37 0
BBX 31 59 3 0
BITMAP
03C00780
01E00F00
01F01F00
00F83E00
00FC3E00
007C7C00
007EFC00
003FF800
003FF800
001FF000
001FF000
00000000
00000000
00000000
00000000
00000000
00000000
7FFFFFFE
7FFFFFFE
7FFFFFFE
7FFFFFFE
7FFFFFFE
7FFFFFFE
7FFFFFFE
00000FFE
00000FFC
00001FFC
00003FF8
00007FF0
00007FE0
0000FFC0
0001FFC0
0003FF80
0003FF00
0007FE00
000FFE00
001FFC00
001FF800
003FF000
007FE000
00FFE000
00FFC000
01FF8000
03FF0000
07FF0000
07FE0000
0FFC0000
1FF80000
3FF80000
7FF00000
7FE00000
FFC00000
FFFFFFFE
FFFFFFFE
FFFFFFFE
FFFFFFFE
FFFFFFFE
FFFFFFFE
FFFFFFFE
ENDCHAR
STARTCHAR 017E
ENCODING 382
SWIDTH 517 0
DWIDTH 30 0
BBX 24 46 3 0
BITMAP
1E0078
1E00F0
0F01F0
0F83E0
0FC3E0
07E7C0
07EFC0
03FF80
03FF80
01FF80
01FF00
000000
000000
000000
000000
000000
000000
FFFFFE
FFFFFE
FFFFFE
FFFFFE
FFFFFE
0003FE
0003FE
0007FC
000FF8
001FF0
003FE0
007FC0
007FC0
00FF80
01FF00
03FE00
07FC00
0FF800
0FF000
1FF000
3FE000
7FC000
FF8000
FF0000
FFFFFF
FFFFFF
FFFFFF
FFFFFF
FFFFFF
ENDCHAR
STARTCHAR 0192
ENCODING 402
SWIDTH 534 0
DWIDTH 31 0
BBX 37 55 -5 -12
BITMAP
0000000FF0
0000007FF8
000000FFF8
000001FFF0
000003FFF0
000003FC30
000007F800
000007F000
000007F000
00000FE000
00000FE000
00000FE000
00001FC000
0007FFFF80
0007FFFF80
0007FFFF00
000FFFFF00
000FFFFF00
000FFFFF00
00007F8000
00007F0000
00007F0000
00007F0000
0000FE0000
0000FE0000
0000FE0000
0000FE0000
0001FC0000
0001FC0000
0001FC0000
0003F80000
0003F80000
0003F80000
0003F80000
0007F00000
0007F00000
0007F00000
000FE00000
000FE00000
000FE00000
000FE00000
001FC00000
001FC00000
001FC00000
003F800000
003F800000
003F800000
007F000000
00FF000000
31FE000000
7FFE000000
7FFC000000
7FF8000000
FFE0000000
3F80000000
ENDCHAR
STARTCHAR 02C6
ENCODING 710
SWIDTH 327 0
DWIDTH 19 0
BBX 18 11 0 35
BITMAP
07F800
07FC00
0FFC00
0FFE00
1FFE00
1FBF00
3F1F00
3E0F80
7C0F80
7807C0
F803C0
ENDCHAR
STARTCHAR 02C7
ENCODING 711
SWIDTH 327 0
DWIDTH 19 0
BBX 19 11 0 35
BITMAP
F003E0
F803C0
7C07C0
7E0F80
3E1F80
3F3F00
1FBF00
1FFE00
0FFE00
0FFC00
07FC00
ENDCHAR
STARTCHAR 02D8
ENCODING 728
SWIDTH 310 0
DWIDTH 18 0
BBX 18 9 0 35
BITMAP
E003C0
F003C0
F80780
FE1F80
7FFF80
7FFF00
3FFE00
1FFC00
07F000
ENDCHAR
STARTCHAR 02D9
ENCODING 729
SWIDTH 120 0
DWIDTH 7 0
BBX 7 8 0 35
BITMAP
FE
FE
FE
FE
FE
FE
FE
FE
ENDCHAR
STARTCHAR 02DA
ENCODING 730
SWIDTH 241 0
DWIDTH 14 0
BBX 14 14 0 35
BITMAP
0FC0
1FE0
3FF0
78F8
F07C
E03C
E03C
E03C
F07C
F8FC
7FF8
3FF0
1FE0
0FC0
ENDCHAR
STARTCHAR 02DB
ENCODING 731
SWIDTH 206 0
DWIDTH 12 0
BBX 10 14 0 -13
BITMAP
0600
0E00
1C00
3C00
7800
7800
F800
F800
FC00
FFC0
FFC0
7FC0
7FC0
1FC0
ENDCHAR
STARTCHAR 02DC
ENCODING 732
SWIDTH 327 0
DWIDTH 19 0
BBX 19 8 0 36
BITMAP
0000E0
0001C0
1F83C0
3FFFC0
7FFF80
7FFF00
F07E00
E00000
ENDCHAR
STARTCHAR 02DD
ENCODING 733
SWIDTH 327 0
DWIDTH 19 0
BBX 19 11 0 35
BITMAP
1F8FE0
1F8FC0
3F0F80
3E1F80
3E1F00
3C1E00
7C1E00
783C00
703800
F03800
E07000
ENDCHAR
STARTCHAR 0394
ENCODING 916
SWIDTH 637 0
DWIDTH 37 0
BBX 36 42 1 1
BITMAP
0000200000
0000300000
0000700000
0000700000
0000F80000
0000F80000
0000FC0000
0001FC0000
0001FC0000
0003FE0000
0003FE0000
00077F0000
00077F0000
000E3F0000
000E3F8000
001C1F8000
001C1FC000
00181FC000
00380FC000
00380FE000
007007E000
007007F000
00E007F000
00E003F000
01C003F800
01C001F800
038001FC00
038001FC00
070000FC00
070000FE00
0600007E00
0E00007F00
0E00007F00
1C00003F00
1C00003F80
3800001F80
3800001FC0
7000001FC0
7000000FC0
FFFFFFFFE0
FFFFFFFFE0
FFFFFFFFF0
ENDCHAR
STARTCHAR 03A9
ENCODING 937
SWIDTH 793 0
DWIDTH 46 0
BBX 42 43 2 0
BITMAP
0000FFC00000
000FFFFC0000
003F807F0000
007E000FC000
01F80007E000
03F00003F000
07E00001F800
0FE00000FC00
0FC00000FC00
1FC000007E00
1F8000007E00
3F8000007F00
3F8000007F00
3F0000003F00
7F0000003F80
7F0000003F80
7F0000003F80
7F0000003F80
7F0000003F80
7F0000003F80
7F0000003F80
7F0000003F80
7F0000003F80
3F8000007F00
3F8000007F00
3F8000007F00
1FC000007E00
1FC00000FE00
0FC00000FC00
07E00001F800
03F00003F000
01F80007E000
007E000FC000
003F807F0000
800780780040
800380700040
C003807000C0
FFFF807FFFC0
FFFF807FFFC0
FFFF807FFFC0
FFFFC07FFFC0
FFFFC07FFFC0
FFFFC07FFFC0
ENDCHAR
STARTCHAR 03BC
ENCODING 956
SWIDTH 672 0
DWIDTH 39 0
BBX 34 42 4 -12
BITMAP
FF001FE000
FF001FE000
FF001FE000
FF001FE000
FF001FE000
FF001FE000
FF001FE000
FF001FE000
FF001FE000
FF001FE000
FF001FE000
FF001FE000
FF001FE000
FF001FE000
FF001FE000
FF001FE000
FF001FE000
FF001FE000
FF001FE000
FF001FE000
FF001FE000
FF001FE000
FF003FE000
FF803FE000
FF807FF000
FFF1FFF8C0
FFFFFFFFC0
FFFFEFFFC0
FFFFC7FFC0
FF7F83FFC0
FF1F00FF00
FF00000000
FF00000000
FF00000000
FF00000000
FF00000000
FF00000000
FF00000000
FF00000000
FF00000000
FF00000000
FF00000000
ENDCHAR
STARTCHAR 03C0
ENCODING 960
SWIDTH 568 0
DWIDTH 33 0
BBX 31 31 1 -1
BITMAP
03FFFFFE
0FFFFFFE
1FFFFFFE
3FFFFFFE
7FFFFFFE
70701E00
E0701E00
C0F01E00
80F01E00
00F01E00
00F01C00
00F01C00
00F03C00
00F03C00
00E03C00
01E03C00
01E03C00
01E03C00
01E03C00
01E03C00
01E03C00
03E03C02
03C03E06
07C03E06
0FC03F0E
1FC01FFC
1FC01FFC
3F801FF8
1F800FF8
1F8007E0
0F0003C0
ENDCHAR
STARTCHAR 2013
ENCODING 8211
SWIDTH 500 0
DWIDTH 29 0
BBX 29 6 0 12
BITMAP
FFFFFFF8
FFFFFFF8
FFFFFFF8
FFFFFFF8
FFFFFFF8
FFFFFFF8
ENDCHAR
STARTCHAR 2014
ENCODING 8212
SWIDTH 1000 0
DWIDTH 58 0
BBX 58 6 0 12
BITMAP
FFFFFFFFFFFFFFC0
FFFFFFFFFFFFFFC0
FFFFFFFFFFFFFFC0
FFFFFFFFFFFFFFC0
FFFFFFFFFFFFFFC0
FFFFFFFFFFFFFFC0
ENDCHAR
STARTCHAR 2018
ENCODING 8216
SWIDTH 275 0
DWIDTH 16 0
BBX 12 15 2 27
BITMAP
01F0
03F0
03F0
07E0
07E0
0FE0
0FC0
1FC0
1FC0
3F80
3F80
7F80
7F00
FF00
FF00
ENDCHAR
STARTCHAR 2019
ENCODING 8217
SWIDTH 275 0
DWIDTH 16 0
BBX 12 15 2 27
BITMAP
0FF0
0FF0
0FE0
1FE0
1FC0
1FC0
3F80
3F80
3F00
7F00
7E00
7E00
7C00
FC00
FC00
ENDCHAR
STARTCHAR 201A
ENCODING 8218
SWIDTH 275 0
DWIDTH 16 0
BBX 12 15 2 -8
BITMAP
0FF0
0FF0
0FE0
1FE0
1FC0
1FC0
3F80
3F80
3F00
3F00
7E00
7E00
7E00
FC00
FC00
ENDCHAR
STARTCHAR 201C
ENCODING 8220
SWIDTH 482 0
DWIDTH 28 0
BBX 24 15 2 27
BITMAP
01F03F
03F03E
03F07E
07E07E
07E0FE
0FE0FC
0FC1FC
1FC1FC
1FC3F8
3F83F8
3F83F8
7F87F0
7F07F0
FF0FF0
FF0FF0
ENDCHAR
STARTCHAR 201D
ENCODING 8221
SWIDTH 482 0
DWIDTH 28 0
BBX 24 15 2 27
BITMAP
0FF0FF
0FF0FE
0FE1FE
1FE1FC
1FC1FC
1FC3F8
3F83F8
3F83F0
3F07F0
7F07F0
7E07E0
7E07E0
7C0FC0
FC0FC0
FC0F80
ENDCHAR
STARTCHAR 201E
ENCODING 8222
SWIDTH 482 0
DWIDTH 28 0
BBX 24 15 2 -8
BITMAP
0FF0FF
0FF0FE
0FE1FE
1FE1FC
1FC1FC
1FC3F8
3F83F8
3F83F8
3F07F0
3F07F0
7E07E0
7E07E0
7E0FC0
FC0FC0
FC0F80
ENDCHAR
STARTCHAR 2020
ENCODING 8224
SWIDTH 534 0
DWIDTH 31 0
BBX 27 52 2 -9
BITMAP
003F8000
003F8000
003F8000
003F8000
003F8000
003F8000
003F8000
003F8000
003F8000
003F8000
003F8000
003F8000
003F8000
FFFFFFE0
FFFFFFE0
FFFFFFE0
FFFFFFE0
FFFFFFE0
FFFFFFE0
003F8000
003F8000
003F8000
003F8000
003F8000
003F8000
003F8000
003F8000
003F8000
003F8000
003F8000
003F8000
003F8000
003F8000
003F8000
003F8000
003F8000
003F8000
003F8000
003F8000
003F8000
003F8000
003F8000
003F8000
003F8000
003F8000
003F8000
003F8000
003F8000
003F8000
003F8000
003F8000
003F8000
ENDCHAR
STARTCHAR 2021
ENCODING 8225
SWIDTH 551 0
DWIDTH 32 0
BBX 26 52 3 -9
BITMAP
007F0000
007F0000
007F0000
007F0000
007F0000
007F0000
007F0000
007F0000
007F0000
007F0000
007F0000
007F0000
007F0000
FFFFFFC0
FFFFFFC0
FFFFFFC0
FFFFFFC0
FFFFFFC0
FFFFFFC0
007F0000
007F0000
007F0000
007F0000
007F0000
007F0000
007F0000
007F0000
007F0000
007F0000
007F0000
007F0000
007F0000
007F0000
FFFFFFC0
FFFFFFC0
FFFFFFC0
FFFFFFC0
FFFFFFC0
FFFFFFC0
007F0000
007F0000
007F0000
007F0000
007F0000
007F0000
007F0000
007F0000
007F0000
007F0000
007F0000
007F0000
007F0000
ENDCHAR
STARTCHAR 2022
ENCODING 8226
SWIDTH 293 0
DWIDTH 17 0
BBX 13 13 2 13
BITMAP
0F80
3FE0
7FF0
7FF0
FFF8
FFF8
FFF8
FFF8
FFF8
7FF0
7FF0
3FE0
0F80
ENDCHAR
STARTCHAR 2026
ENCODING 8230
SWIDTH 1000 0
DWIDTH 58 0
BBX 52 8 3 0
BITMAP
FF0003FC000FF0
FF0003FC000FF0
FF0003FC000FF0
FF0003FC000FF0
FF0003FC000FF0
FF0003FC000FF0
FF0003FC000FF0
FF0003FC000FF0
ENDCHAR
STARTCHAR 2030
ENCODING 8240
SWIDTH 1448 0
DWIDTH 84 0
BBX 80 44 2 0
BITMAP
000000000FC000000000
00FE00001F8000000000
07FF80001F8000000000
0FFFE0003F0000000000
1FFFF0003F0000000000
3F83F8007E0000000000
3F01F8007C0000000000
7E00FC00FC0000000000
7E00FC00F80000000000
FC007E01F80000000000
FC007E03F00000000000
FC007E03F00000000000
FC007E07E00000000000
FC007E07E00000000000
FC007E0FC00000000000
FC007E0F800000000000
FC007E1F800000000000
7E00FC1F000000000000
7E00FC3F000000000000
3F01F87E000000000000
3F83F87E03F800007F00
1FFFF0FC1FFE0003FFC0
0FFFE0FC3FFF8007FFF0
07FFC1F87FFFC00FFFF8
00FE01F8FE0FE01FC1FC
000003F0FC07E01F80FC
000003E1F803F03F007E
000007E1F803F03F007E
00000FC3F001F87E003F
00000FC3F001F87E003F
00001F83F001F87E003F
00001F83F001F87E003F
00003F03F001F87E003F
00003F03F001F87E003F
00007E03F001F87E003F
00007C03F001F87E003F
0000FC01F803F03F007E
0000F801F803F03F007E
0001F800FC07E01F80FC
0003F000FE0FE01FC1FC
0003F0007FFFC00FFFF8
0007E0003FFF8007FFF0
0007E0001FFF0003FFE0
000FC00003F800007F00
ENDCHAR
STARTCHAR 2039
ENCODING 8249
SWIDTH 362 0
DWIDTH 21 0
BBX 13 23 4 3
BITMAP
03F8
07F8
07F8
0FF0
0FF0
1FE0
1FE0
3FC0
7FC0
7F80
FF80
FF00
FF80
7F80
7FC0
3FC0
1FE0
1FE0
0FF0
0FF0
07F8
07F8
03F8
ENDCHAR
STARTCHAR 203A
ENCODING 8250
SWIDTH 362 0
DWIDTH 21 0
BBX 14 23 4 3
BITMAP
FF00
FF00
7F80
7F80
3FC0
3FC0
1FE0
1FE0
0FF0
0FF8
07F8
07FC
07F8
0FF8
0FF0
1FE0
1FE0
3FC0
3FC0
7F80
7F80
FF00
FF00
ENDCHAR
STARTCHAR 2044
ENCODING 8260
SWIDTH 568 0
DWIDTH 33 0
BBX 30 44 2 -1
BITMAP
000000FC
000001F8
000001F8
000003F0
000003E0
000007E0
000007C0
00000FC0
00001F80
00001F80
00003F00
00003E00
00007E00
00007C00
0000FC00
0001F800
0001F800
0003F000
0003F000
0007E000
0007C000
000FC000
000F8000
001F8000
003F0000
003F0000
007E0000
007C0000
00FC0000
00F80000
01F80000
03F00000
03F00000
07E00000
07E00000
0FC00000
0F800000
1F800000
1F000000
3F000000
7E000000
7E000000
FC000000
F8000000
ENDCHAR
STARTCHAR 2122
ENCODING 8482
SWIDTH 637 0
DWIDTH 37 0
BBX 32 16 2 25
BITMAP
FFF9F01F
FFF9F83F
FFF9F83F
0701F83F
0701D837
0701DC77
0701DC77
0701DC77
0701CEE7
0701CEE7
0701CEE7
0701C7C7
0701C7C7
0701C7C7
0701C387
0701C387
ENDCHAR
STARTCHAR 2202
ENCODING 8706
SWIDTH 517 0
DWIDTH 30 0
BBX 26 46 2 -1
BITMAP
03FC0000
1FFF0000
1FFFC000
0F01E000
0800F000
00007800
00003C00
00001E00
00001E00
00000F00
00000F00
00000700
00000780
00000780
00000780
00000780
000007C0
000007C0
000007C0
000007C0
000007C0
00FF07C0
03FFC7C0
0FE0E7C0
1FC037C0
1F801FC0
3F000FC0
7E000F80
7E000F80
7C000F80
FC000F80
FC001F80
F8001F80
F8001F00
F8001F00
F8003F00
F8003E00
F8003E00
F8007C00
78007C00
7C00F800
3C00F000
1E01E000
0F07C000
07FF8000
00FE0000
ENDCHAR
STARTCHAR 220F
ENCODING 8719
SWIDTH 862 0
DWIDTH 50 0
BBX 48 51 1 -6
BITMAP
7FFFFFFFFFFE
1FFFFFFFFFF8
07FFFFFFFFE0
07F800001FC0
03F800001FC0
03F800001FC0
03F800001FC0
03F800001FC0
03F800001FC0
03F800001FC0
03F800001FC0
03F800001FC0
03F800001FC0
03F800001FC0
03F800001FC0
03F800001FC0
03F800001FC0
03F800001FC0
03F800001FC0
03F800001FC0
03F800001FC0
03F800001FC0
03F800001FC0
03F800001FC0
03F800001FC0
03F800001FC0
03F800001FC0
03F800001FC0
03F800001FC0
03F800001FC0
03F800001FC0
03F800001FC0
03F800001FC0
03F800001FC0
03F800001FC0
03F800001FC0
03F800001FC0
03F800001FC0
03F800001FC0
03F800001FC0
03F800001FC0
03F800001FC0
03F800001FC0
03F800001FC0
03F800001FC0
03F800001FC0
03F800001FC0
03FC00003FC0
07FC00003FE0
3FFF8001FFFC
FFFFE007FFFF
ENDCHAR
STARTCHAR 2211
ENCODING 8721
SWIDTH 741 0
DWIDTH 43 0
BBX 40 51 1 -7
BITMAP
FFFFFFFFF0
7FFFFFFFF0
3FFFFFFFF8
1FE00001F8
1FE0000078
0FF0000038
07F8000018
03FC000018
01FE000018
01FE000008
00FF000000
007F800000
003FC00000
003FC00000
001FE00000
000FF00000
0007F80000
0007F80000
0003FC0000
0001FE0000
0000FF0000
0000FF0000
00007F8000
00003FC000
00001FC000
00000FC000
00000F8000
00000F0000
00000E0000
00001C0000
0000380000
0000700000
0000F00000
0001E00000
0003C00000
0007800000
0007000000
000E000000
001C000001
003C000001
0078000003
00F0000003
01E0000007
03C000000E
038000003E
07FFFFFFFE
0FFFFFFFFE
1FFFFFFFFE
3FFFFFFFFC
7FFFFFFFFC
FFFFFFFFFC
ENDCHAR
STARTCHAR 2212
ENCODING 8722
SWIDTH 1000 0
DWIDTH 58 0
BBX 35 4 12 15
BITMAP
FFFFFFFFE0
FFFFFFFFE0
FFFFFFFFE0
FFFFFFFFE0
ENDCHAR
STARTCHAR 221A
ENCODING 8730
SWIDTH 568 0
DWIDTH 33 0
BBX 32 41 1 0
BITMAP
0000000F
0000001F
00000018
00000018
00000018
00000038
00000030
00000030
00000070
00000060
00000060
00000060
000000E0
060000C0
0F0000C0
3F0000C0
F78001C0
47800180
03C00180
03C00380
01E00300
01E00300
00F00300
00F00700
00780600
00780600
003C0600
003C0E00
001E0C00
001E0C00
000F1C00
000F9800
00079800
0007D800
0003F800
0001F000
0001F000
0000F000
0000F000
00006000
00006000
ENDCHAR
STARTCHAR 221E
ENCODING 8734
SWIDTH 1000 0
DWIDTH 58 0
BBX 39 17 10 9
BITMAP
03E0000F80
0FF8003FE0
3FFE00FFF0
3C1F01F078
780787C03C
7003EF801C
E001FF000E
E0007C000E
E00078000E
E0007C000E
E000EE000E
7003EF001C
7807C3C03C
3C1F01F078
1FFE00FFF0
0FF8003FE0
03C0000F80
ENDCHAR
STARTCHAR 222B
ENCODING 8747
SWIDTH 465 0
DWIDTH 27 0
BBX 23 55 2 -12
BITMAP
0000FC
0003FE
0007FE
000FFE
000E7E
001E1C
001E00
001C00
001C00
003C00
003C00
003C00
003C00
003C00
003C00
003C00
003C00
003C00
003C00
003C00
003C00
003C00
007C00
007C00
007C00
007C00
007C00
007C00
007C00
007C00
007C00
007C00
007C00
007C00
007C00
007C00
007800
007800
007800
007800
007800
007800
007800
007800
007800
00F800
00F000
00F000
00F000
F0E000
FCE000
FFC000
FFC000
FF0000
7C0000
ENDCHAR
STARTCHAR 2248
ENCODING 8776
SWIDTH 1000 0
DWIDTH 58 0
BBX 34 17 12 9
BITMAP
07FC000040
1FFF8001C0
7FFFF003C0
FE3FFFFFC0
F003FFFF80
C0007FFE00
800007F800
0000000000
0000000000
0000000000
07FC000040
1FFF8001C0
7FFFF003C0
FE3FFFFFC0
F003FFFF80
C0007FFE00
800007F800
ENDCHAR
STARTCHAR 2260
ENCODING 8800
SWIDTH 1000 0
DWIDTH 58 0
BBX 35 27 12 4
BITMAP
0000000800
0000001C00
0000003E00
0000007C00
000000F800
000001F000
FFFFFFFFE0
FFFFFFFFE0
FFFFFFFFE0
FFFFFFFFE0
00003E0000
00007C0000
0000F80000
0001F00000
0003E00000
0007C00000
000F800000
FFFFFFFFE0
FFFFFFFFE0
FFFFFFFFE0
FFFFFFFFE0
01F0000000
03E0000000
07C0000000
0F80000000
0700000000
0200000000
ENDCHAR
STARTCHAR 2264
ENCODING 8804
SWIDTH 1000 0
DWIDTH 58 0
BBX 35 32 12 0
BITMAP
00000000E0
00000007E0
0000003FE0
000003FFC0
00001FFC00
0000FFE000
0007FF0000
003FF00000
01FF800000
1FF8000000
FFC0000000
FE00000000
F000000000
FE00000000
7FE0000000
0FFC000000
01FF800000
003FF80000
0003FF0000
00007FF000
00000FFE00
000001FFC0
0000003FE0
00000007E0
0000000060
0000000000
0000000000
0000000000
0000000000
FFFFFFFFE0
FFFFFFFFE0
FFFFFFFFE0
ENDCHAR
STARTCHAR 2265
ENCODING 8805
SWIDTH 1000 0
DWIDTH 58 0
BBX 35 32 12 0
BITMAP
E000000000
FC00000000
FF80000000
7FF0000000
0FFF000000
00FFE00000
001FFC0000
0001FF8000
00003FF000
000007FE00
0000007FC0
0000000FE0
00000001E0
0000001FE0
000000FFC0
000007FE00
00007FF000
0003FF0000
001FF80000
01FFC00000
0FFE000000
FFF0000000
FF80000000
F800000000
C000000000
0000000000
0000000000
0000000000
0000000000
FFFFFFFFE0
FFFFFFFFE0
FFFFFFFFE0
ENDCHAR
STARTCHAR 25CA
ENCODING 9674
SWIDTH 534 0
DWIDTH 31 0
BBX 27 45 2 0
BITMAP
001F0000
001F0000
003F8000
003B8000
007BC000
0071C000
00F1E000
00E0E000
01E0F000
01C07000
03C07800
03803800
07803C00
07001C00
0F001E00
0E000F00
1E000700
1C000780
3C000380
780003C0
780001C0
F00001E0
F00001E0
700001C0
780003C0
38000380
3C000780
1C000700
1E000F00
0E000E00
0F001E00
07001C00
07803C00
03803800
03C07800
01C07000
01E0F000
00E0E000
00F1E000
0071C000
007BC000
003B8000
003F8000
001F0000
001F0000
ENDCHAR
STARTCHAR FB01
ENCODING 64257
SWIDTH 637 0
DWIDTH 37 0
BBX 33 43 1 0
BITMAP
003FC00000
00FFF0FF80
01FFF0FF80
03FFF0FF80
03FFF0FF80
03FC10FF80
07FC00FF80
07F800FF80
07F800FF80
07F8000000
07F8000000
07F8000000
07F8000000
07F8000000
FFFFE0FF00
FFFFE0FF00
FFFFE0FF00
FFFFE0FF00
FFFFE0FF00
07F800FF00
07F800FF00
07F800FF00
07F800FF00
07F800FF00
07F800FF00
07F800FF00
07F800FF00
07F800FF00
07F800FF00
07F800FF00
07F800FF00
07F800FF00
07F800FF00
07F800FF00
07F800FF00
07F800FF00
07F800FF00
07F800FF00
07F800FF00
07F800FF00
07F800FF00
07F800FF00
07F800FF00
ENDCHAR
STARTCHAR FB02
ENCODING 64258
SWIDTH 637 0
DWIDTH 37 0
BBX 32 43 1 0
BITMAP
003F8000
00FFF0FF
01FFF0FF
03FFF0FF
03FFF0FF
03FC10FF
07FC00FF
07F800FF
07F800FF
07F800FF
07F800FF
07F800FF
07F800FF
07F800FF
FFFFE0FF
FFFFE0FF
FFFFE0FF
FFFFE0FF
FFFFE0FF
07F800FF
07F800FF
07F800FF
07F800FF
07F800FF
07F800FF
07F800FF
07F800FF
07F800FF
07F800FF
07F800FF
07F800FF
07F800FF
07F800FF
07F800FF
07F800FF
07F800FF
07F800FF
07F800FF
07F800FF
07F800FF
07F800FF
07F800FF
07F800FF
ENDCHAR
ENDFONT
